G04 Generated by Ultiboard 14.1 *
%FSLAX24Y24*%
%MOIN*%

%ADD10C,0.0001*%
%ADD11C,0.0100*%
%ADD12C,0.0150*%


G04 ColorRGB FF14FF for the following layer *
%LNSilkscreen Bottom*%
%LPD*%
G54D10*
G54D11*
X11343Y536D02*
X11229Y421D01*
X11116Y421D01*
X11002Y536D01*
X11002Y879D01*
X11116Y993D01*
X11229Y993D01*
X11343Y879D01*
X11343Y536D01*
X11116Y536D02*
X11002Y421D01*
X10490Y421D02*
X10831Y421D01*
X10831Y707D01*
X10831Y993D01*
X10490Y993D01*
X10831Y707D02*
X10604Y707D01*
X10319Y536D02*
X10205Y421D01*
X10092Y421D01*
X9978Y536D01*
X10319Y879D01*
X10205Y993D01*
X10092Y993D01*
X9978Y879D01*
X9295Y879D02*
X9181Y993D01*
X9068Y993D01*
X8954Y879D01*
X8954Y821D01*
X9295Y421D01*
X8954Y421D01*
X8954Y479D01*
X8783Y879D02*
X8669Y993D01*
X8556Y993D01*
X8442Y879D01*
X8442Y536D01*
X8556Y421D01*
X8669Y421D01*
X8783Y536D01*
X8783Y879D01*
X8442Y879D02*
X8783Y536D01*
X8214Y879D02*
X8100Y993D01*
X8100Y421D01*
X8271Y421D02*
X7930Y421D01*
X7588Y421D02*
X7588Y707D01*
X7418Y879D01*
X7418Y993D01*
X7759Y993D01*
X7759Y879D01*
X14843Y16893D02*
X14672Y16321D01*
X14502Y16893D01*
X13762Y16779D02*
X13648Y16893D01*
X13648Y16321D01*
X13819Y16321D02*
X13478Y16321D01*
X13136Y16321D02*
X13136Y16379D01*
X12795Y16779D02*
X12681Y16893D01*
X12568Y16893D01*
X12454Y16779D01*
X12454Y16436D01*
X12568Y16321D01*
X12681Y16321D01*
X12795Y16436D01*
X12795Y16779D01*
X12454Y16779D02*
X12795Y16436D01*
G54D12*
X14020Y17685D02*
X14300Y17403D01*
X14580Y17403D01*
X14860Y17685D01*
X14860Y18528D01*
X14580Y18809D01*
X14300Y18809D01*
X14020Y18528D01*
X13600Y17403D02*
X13600Y18247D01*
X13320Y18809D01*
X13040Y18809D01*
X12760Y18247D01*
X12760Y17403D01*
X13600Y17825D02*
X12760Y17825D01*
X12340Y17403D02*
X12340Y18809D01*
X11500Y17403D01*
X11500Y18809D01*
X11080Y17966D02*
X10241Y17966D01*
X9821Y17403D02*
X9821Y18809D01*
X8981Y18809D01*
X9821Y18106D02*
X9261Y18106D01*
X8561Y17403D02*
X8001Y17403D01*
X7721Y17685D01*
X7721Y18528D01*
X8001Y18809D01*
X8561Y18809D01*
X8421Y18809D02*
X8421Y17403D01*

M02*
