G04 Generated by Ultiboard 14.1 *
%FSLAX24Y24*%
%MOIN*%

%ADD10C,0.0001*%
%ADD11C,0.0080*%
%ADD12C,0.0100*%
%ADD13C,0.0001*%
%ADD14C,0.0070*%
%ADD15C,0.0079*%
%ADD16C,0.0197*%
%ADD17C,0.0098*%
%ADD18C,0.0060*%
%ADD19C,0.0236*%
%ADD20C,0.02864*%
%ADD21C,0.02236*%
%ADD22C,0.02081*%


G04 ColorRGB FFFF00 for the following layer *
%LNSilkscreen Top*%
%LPD*%
G54D10*
G54D11*
X6993Y14462D02*
X6993Y14119D01*
X7078Y14033D01*
X7164Y14033D01*
X7249Y14119D01*
X7249Y14462D01*
X7633Y14204D02*
X7377Y14204D01*
X7590Y14462D01*
X7590Y14033D01*
X7548Y14033D02*
X7633Y14033D01*
X9065Y8789D02*
X8979Y8704D01*
X8894Y8704D01*
X8809Y8789D01*
X8809Y9046D01*
X8894Y9132D01*
X8979Y9132D01*
X9065Y9046D01*
X9449Y8875D02*
X9193Y8875D01*
X9406Y9132D01*
X9406Y8704D01*
X9363Y8704D02*
X9449Y8704D01*
X12235Y3341D02*
X11892Y3341D01*
X11807Y3256D01*
X11807Y3171D01*
X11892Y3085D01*
X12235Y3085D01*
X12149Y2915D02*
X12235Y2829D01*
X11807Y2829D01*
X11807Y2957D02*
X11807Y2701D01*
X17259Y3006D02*
X17344Y2920D01*
X17429Y2920D01*
X17515Y3006D01*
X17515Y3349D01*
X17685Y3263D02*
X17771Y3349D01*
X17771Y2920D01*
X17643Y2920D02*
X17899Y2920D01*
X6135Y17053D02*
X6135Y17482D01*
X6306Y17482D01*
X6391Y17396D01*
X6391Y17353D01*
X6306Y17267D01*
X6135Y17267D01*
X6178Y17267D02*
X6391Y17053D01*
X6562Y17439D02*
X6604Y17482D01*
X6690Y17482D01*
X6775Y17396D01*
X6775Y17310D01*
X6732Y17267D01*
X6775Y17224D01*
X6775Y17139D01*
X6690Y17053D01*
X6604Y17053D01*
X6562Y17096D01*
X6604Y17267D02*
X6732Y17267D01*
X7350Y17650D02*
X6250Y17650D01*
X6250Y18350D02*
X7350Y18350D01*
X6250Y17650D02*
X6250Y18350D01*
X7350Y18350D02*
X7350Y17650D01*
X14761Y17515D02*
X14846Y17429D01*
X14846Y17344D01*
X14761Y17259D01*
X14504Y17259D01*
X14418Y17344D01*
X14418Y17429D01*
X14504Y17515D01*
X14846Y17813D02*
X14846Y17728D01*
X14761Y17643D01*
X14675Y17643D01*
X14632Y17685D01*
X14589Y17643D01*
X14504Y17643D01*
X14418Y17728D01*
X14418Y17813D01*
X14504Y17899D01*
X14589Y17899D01*
X14632Y17856D01*
X14675Y17899D01*
X14761Y17899D01*
X14846Y17813D01*
X14632Y17685D02*
X14632Y17856D01*
X12561Y15915D02*
X12646Y15829D01*
X12646Y15744D01*
X12561Y15659D01*
X12304Y15659D01*
X12218Y15744D01*
X12218Y15829D01*
X12304Y15915D01*
X12561Y16043D02*
X12646Y16128D01*
X12646Y16213D01*
X12561Y16299D01*
X12389Y16299D01*
X12304Y16299D01*
X12218Y16213D01*
X12218Y16128D01*
X12304Y16043D01*
X12389Y16043D01*
X12475Y16128D01*
X12475Y16213D01*
X12389Y16299D01*
X13261Y15457D02*
X13261Y15114D01*
X13347Y15029D01*
X13432Y15029D01*
X13517Y15114D01*
X13517Y15457D01*
X13901Y15457D02*
X13645Y15457D01*
X13645Y15286D01*
X13816Y15286D01*
X13901Y15200D01*
X13901Y15114D01*
X13816Y15029D01*
X13645Y15029D01*
X13941Y9135D02*
X13512Y9135D01*
X13512Y9306D01*
X13598Y9391D01*
X13641Y9391D01*
X13726Y9306D01*
X13726Y9135D01*
X13726Y9178D02*
X13941Y9391D01*
X13598Y9519D02*
X13512Y9604D01*
X13512Y9690D01*
X13598Y9775D01*
X13641Y9775D01*
X13941Y9519D01*
X13941Y9775D01*
X13898Y9775D01*
X13344Y10350D02*
X13344Y9250D01*
X12644Y9250D02*
X12644Y10350D01*
X13344Y9250D02*
X12644Y9250D01*
X12644Y10350D02*
X13344Y10350D01*
X15541Y9135D02*
X15112Y9135D01*
X15112Y9306D01*
X15198Y9391D01*
X15241Y9391D01*
X15326Y9306D01*
X15326Y9135D01*
X15326Y9178D02*
X15541Y9391D01*
X15369Y9775D02*
X15369Y9519D01*
X15112Y9732D01*
X15541Y9732D01*
X15541Y9690D02*
X15541Y9775D01*
X14944Y10350D02*
X14944Y9250D01*
X14244Y9250D02*
X14244Y10350D01*
X14944Y9250D02*
X14244Y9250D01*
X14244Y10350D02*
X14944Y10350D01*
X12325Y11527D02*
X12753Y11527D01*
X12753Y11783D01*
X12753Y12167D02*
X12753Y11911D01*
X12539Y11911D01*
X12325Y11911D01*
X12325Y12167D01*
X12539Y11911D02*
X12539Y12082D01*
X12753Y12295D02*
X12753Y12466D01*
X12668Y12551D01*
X12411Y12551D01*
X12325Y12466D01*
X12325Y12295D01*
X12325Y12338D02*
X12753Y12338D01*
X12411Y12722D02*
X12325Y12807D01*
X12753Y12807D01*
X12753Y12679D02*
X12753Y12935D01*
X13925Y11527D02*
X14353Y11527D01*
X14353Y11783D01*
X14353Y12167D02*
X14353Y11911D01*
X14139Y11911D01*
X13925Y11911D01*
X13925Y12167D01*
X14139Y11911D02*
X14139Y12082D01*
X14353Y12295D02*
X14353Y12466D01*
X14268Y12551D01*
X14011Y12551D01*
X13925Y12466D01*
X13925Y12295D01*
X13925Y12338D02*
X14353Y12338D01*
X14011Y12679D02*
X13925Y12765D01*
X13925Y12850D01*
X14011Y12935D01*
X14053Y12935D01*
X14353Y12679D01*
X14353Y12935D01*
X14311Y12935D01*
X13499Y6014D02*
X13413Y5929D01*
X13328Y5929D01*
X13243Y6014D01*
X13243Y6271D01*
X13328Y6357D01*
X13413Y6357D01*
X13499Y6271D01*
X13669Y6271D02*
X13755Y6357D01*
X13755Y5929D01*
X13627Y5929D02*
X13883Y5929D01*
X5149Y1964D02*
X5063Y1879D01*
X4978Y1879D01*
X4893Y1964D01*
X4893Y2221D01*
X4978Y2307D01*
X5063Y2307D01*
X5149Y2221D01*
X5319Y2264D02*
X5362Y2307D01*
X5447Y2307D01*
X5533Y2221D01*
X5533Y2136D01*
X5490Y2093D01*
X5533Y2050D01*
X5533Y1964D01*
X5447Y1879D01*
X5362Y1879D01*
X5319Y1921D01*
X5362Y2093D02*
X5490Y2093D01*
X16043Y5214D02*
X16128Y5129D01*
X16213Y5129D01*
X16299Y5214D01*
X16299Y5557D01*
X16683Y5300D02*
X16427Y5300D01*
X16640Y5557D01*
X16640Y5129D01*
X16597Y5129D02*
X16683Y5129D01*
X17900Y5700D02*
X15900Y5700D01*
X16650Y6700D02*
X15900Y6700D01*
X15900Y5700D01*
X17900Y6700D02*
X16983Y6700D01*
X16817Y6700D02*
X16817Y6367D01*
X16733Y6617D02*
X16817Y6700D01*
X17900Y6700D02*
X17900Y5700D01*
X18303Y4815D02*
X18732Y4815D01*
X18732Y4644D01*
X18646Y4559D01*
X18603Y4559D01*
X18517Y4644D01*
X18517Y4815D01*
X18517Y4772D02*
X18303Y4559D01*
X18646Y4388D02*
X18732Y4303D01*
X18303Y4303D01*
X18303Y4431D02*
X18303Y4175D01*
X17450Y3850D02*
X17450Y4950D01*
X18150Y4950D02*
X18150Y3850D01*
X17450Y4950D02*
X18150Y4950D01*
X18150Y3850D02*
X17450Y3850D01*
X409Y5456D02*
X494Y5370D01*
X579Y5370D01*
X665Y5456D01*
X665Y5799D01*
X793Y5713D02*
X878Y5799D01*
X963Y5799D01*
X1049Y5713D01*
X1049Y5670D01*
X793Y5370D01*
X1049Y5370D01*
X1049Y5413D01*
X1300Y5100D02*
X1300Y1100D01*
X300Y5100D02*
X300Y2100D01*
X300Y1100D02*
X1300Y1100D01*
X300Y1850D02*
X300Y1100D01*
X300Y2017D02*
X633Y2017D01*
X383Y1933D02*
X300Y2017D01*
X300Y5100D02*
X1300Y5100D01*
X459Y10256D02*
X544Y10170D01*
X629Y10170D01*
X715Y10256D01*
X715Y10599D01*
X1099Y10599D02*
X843Y10599D01*
X843Y10427D01*
X1013Y10427D01*
X1099Y10342D01*
X1099Y10256D01*
X1013Y10170D01*
X843Y10170D01*
X300Y6900D02*
X1300Y6900D01*
X300Y9900D02*
X1300Y9900D01*
X300Y9900D02*
X300Y7900D01*
X300Y7650D02*
X300Y6900D01*
X300Y7817D02*
X633Y7817D01*
X383Y7733D02*
X300Y7817D01*
X1300Y9900D02*
X1300Y6900D01*
X5561Y7582D02*
X5561Y7239D01*
X5647Y7153D01*
X5732Y7153D01*
X5817Y7239D01*
X5817Y7582D01*
X5945Y7496D02*
X6031Y7582D01*
X6116Y7582D01*
X6201Y7496D01*
X6201Y7453D01*
X5945Y7153D01*
X6201Y7153D01*
X6201Y7196D01*
X10815Y5639D02*
X10729Y5554D01*
X10644Y5554D01*
X10559Y5639D01*
X10559Y5896D01*
X10644Y5982D01*
X10729Y5982D01*
X10815Y5896D01*
X11199Y5982D02*
X10943Y5982D01*
X10943Y5811D01*
X11113Y5811D01*
X11199Y5725D01*
X11199Y5639D01*
X11113Y5554D01*
X10943Y5554D01*
X10061Y7732D02*
X10061Y7389D01*
X10147Y7303D01*
X10232Y7303D01*
X10317Y7389D01*
X10317Y7732D01*
X10488Y7689D02*
X10531Y7732D01*
X10616Y7732D01*
X10701Y7646D01*
X10701Y7560D01*
X10659Y7517D01*
X10701Y7474D01*
X10701Y7389D01*
X10616Y7303D01*
X10531Y7303D01*
X10488Y7346D01*
X10531Y7517D02*
X10659Y7517D01*
X11165Y2139D02*
X11079Y2054D01*
X10994Y2054D01*
X10909Y2139D01*
X10909Y2396D01*
X10994Y2482D01*
X11079Y2482D01*
X11165Y2396D01*
X11293Y2396D02*
X11378Y2482D01*
X11463Y2482D01*
X11549Y2396D01*
X11549Y2354D01*
X11293Y2054D01*
X11549Y2054D01*
X11549Y2096D01*
X14811Y18939D02*
X14897Y18853D01*
X14982Y18853D01*
X15067Y18939D01*
X15067Y19282D01*
X15409Y19282D02*
X15281Y19282D01*
X15195Y19196D01*
X15195Y19024D01*
X15195Y18939D01*
X15281Y18853D01*
X15366Y18853D01*
X15451Y18939D01*
X15451Y19024D01*
X15366Y19110D01*
X15281Y19110D01*
X15195Y19024D01*
X19421Y15684D02*
X19421Y18716D01*
X16901Y15684D02*
X17807Y15684D01*
X19067Y15684D02*
X19421Y15684D01*
X15878Y15980D02*
X15878Y16334D01*
X16901Y18716D02*
X17807Y18716D01*
X19421Y18716D02*
X19067Y18716D01*
X15878Y18066D02*
X15878Y18420D01*
X18459Y13456D02*
X18544Y13370D01*
X18629Y13370D01*
X18715Y13456D01*
X18715Y13799D01*
X18885Y13756D02*
X18928Y13799D01*
X19013Y13799D01*
X19099Y13713D01*
X19099Y13627D01*
X19056Y13585D01*
X19099Y13542D01*
X19099Y13456D01*
X19013Y13370D01*
X18928Y13370D01*
X18885Y13413D01*
X18928Y13585D02*
X19056Y13585D01*
X19300Y13100D02*
X18300Y13100D01*
X19300Y10100D02*
X18300Y10100D01*
X19300Y10100D02*
X19300Y12100D01*
X19300Y12350D02*
X19300Y13100D01*
X19300Y12183D02*
X18967Y12183D01*
X19217Y12267D02*
X19300Y12183D01*
X18300Y10100D02*
X18300Y13100D01*
X9623Y16989D02*
X9537Y16904D01*
X9452Y16904D01*
X9367Y16989D01*
X9367Y17246D01*
X9452Y17332D01*
X9537Y17332D01*
X9623Y17246D01*
X9793Y17246D02*
X9879Y17332D01*
X9879Y16904D01*
X9751Y16904D02*
X10007Y16904D01*
X10135Y17246D02*
X10220Y17332D01*
X10305Y17332D01*
X10391Y17246D01*
X10391Y16989D01*
X10305Y16904D01*
X10220Y16904D01*
X10135Y16989D01*
X10135Y17246D01*
X10391Y17246D02*
X10135Y16989D01*
X409Y12656D02*
X494Y12570D01*
X579Y12570D01*
X665Y12656D01*
X665Y12999D01*
X921Y12570D02*
X921Y12785D01*
X1049Y12913D01*
X1049Y12999D01*
X793Y12999D01*
X793Y12913D01*
X300Y13300D02*
X300Y19300D01*
X1300Y14550D02*
X1300Y18300D01*
X1300Y19300D02*
X300Y19300D01*
X1300Y18383D02*
X967Y18383D01*
X1300Y18550D02*
X1300Y19300D01*
X1217Y18467D02*
X1300Y18383D01*
X967Y14383D02*
X967Y14376D01*
X968Y14369D01*
X970Y14362D01*
X972Y14355D01*
X974Y14348D01*
X978Y14342D01*
X982Y14336D01*
X986Y14330D01*
X991Y14324D01*
X996Y14320D01*
X1002Y14315D01*
X1008Y14311D01*
X1015Y14308D01*
X1021Y14305D01*
X1028Y14303D01*
X1036Y14301D01*
X1043Y14300D01*
X1050Y14300D01*
X1057Y14300D01*
X1064Y14301D01*
X1072Y14303D01*
X1079Y14305D01*
X1085Y14308D01*
X1092Y14311D01*
X1098Y14315D01*
X1104Y14320D01*
X1109Y14324D01*
X1114Y14330D01*
X1118Y14336D01*
X1122Y14342D01*
X1126Y14348D01*
X1128Y14355D01*
X1130Y14362D01*
X1132Y14369D01*
X1133Y14376D01*
X1133Y14383D01*
X1133Y14467D02*
X1300Y14467D01*
X1133Y14467D02*
X1133Y14383D01*
X1300Y13300D02*
X300Y13300D01*
X967Y14467D02*
X967Y14383D01*
X1300Y13300D02*
X1300Y14217D01*
X1300Y14300D02*
X1300Y14467D01*
X4315Y13939D02*
X4229Y13854D01*
X4144Y13854D01*
X4059Y13939D01*
X4059Y14196D01*
X4144Y14282D01*
X4229Y14282D01*
X4315Y14196D01*
X4571Y13854D02*
X4571Y14068D01*
X4699Y14196D01*
X4699Y14282D01*
X4443Y14282D01*
X4443Y14196D01*
X10449Y14464D02*
X10363Y14379D01*
X10278Y14379D01*
X10193Y14464D01*
X10193Y14721D01*
X10278Y14807D01*
X10363Y14807D01*
X10449Y14721D01*
X10790Y14807D02*
X10662Y14807D01*
X10577Y14721D01*
X10577Y14550D01*
X10577Y14464D01*
X10662Y14379D01*
X10747Y14379D01*
X10833Y14464D01*
X10833Y14550D01*
X10747Y14636D01*
X10662Y14636D01*
X10577Y14550D01*
X9733Y14217D02*
X11067Y14217D01*
X11067Y13383D02*
X9733Y13383D01*
X9733Y14217D01*
X11067Y14217D02*
X11067Y13383D01*
X6409Y1656D02*
X6494Y1570D01*
X6579Y1570D01*
X6665Y1656D01*
X6665Y1999D01*
X6963Y1570D02*
X6878Y1570D01*
X6793Y1656D01*
X6793Y1742D01*
X6835Y1785D01*
X6793Y1827D01*
X6793Y1913D01*
X6878Y1999D01*
X6963Y1999D01*
X7049Y1913D01*
X7049Y1827D01*
X7006Y1785D01*
X7049Y1742D01*
X7049Y1656D01*
X6963Y1570D01*
X6835Y1785D02*
X7006Y1785D01*
X8000Y1333D02*
X8058Y1336D01*
X8116Y1343D01*
X8173Y1356D01*
X8228Y1374D01*
X8282Y1396D01*
X8333Y1423D01*
X8382Y1454D01*
X8429Y1489D01*
X8471Y1529D01*
X8511Y1571D01*
X8546Y1618D01*
X8577Y1667D01*
X8604Y1718D01*
X8626Y1772D01*
X8644Y1827D01*
X8657Y1884D01*
X8664Y1942D01*
X8667Y2000D01*
X8664Y2058D01*
X8657Y2116D01*
X8644Y2173D01*
X8626Y2228D01*
X8604Y2282D01*
X8577Y2333D01*
X8546Y2382D01*
X8511Y2429D01*
X8471Y2471D01*
X8429Y2511D01*
X8382Y2546D01*
X8333Y2577D01*
X8282Y2604D01*
X8228Y2626D01*
X8173Y2644D01*
X8116Y2657D01*
X8058Y2664D01*
X8000Y2667D01*
X7942Y2664D01*
X7884Y2657D01*
X7827Y2644D01*
X7772Y2626D01*
X7718Y2604D01*
X7667Y2577D01*
X7618Y2546D01*
X7571Y2511D01*
X7529Y2471D01*
X7489Y2429D01*
X7454Y2382D01*
X7423Y2333D01*
X7396Y2282D01*
X7374Y2228D01*
X7356Y2173D01*
X7343Y2116D01*
X7336Y2058D01*
X7333Y2000D01*
X7336Y1942D01*
X7343Y1884D01*
X7356Y1827D01*
X7374Y1772D01*
X7396Y1718D01*
X7423Y1667D01*
X7454Y1618D01*
X7489Y1571D01*
X7529Y1529D01*
X7571Y1489D01*
X7618Y1454D01*
X7667Y1423D01*
X7718Y1396D01*
X7772Y1374D01*
X7827Y1356D01*
X7884Y1343D01*
X7942Y1336D01*
X8000Y1333D01*
X8000Y1333D01*
X14959Y12706D02*
X15044Y12620D01*
X15129Y12620D01*
X15215Y12706D01*
X15215Y13049D01*
X15343Y12706D02*
X15428Y12620D01*
X15513Y12620D01*
X15599Y12706D01*
X15599Y12877D01*
X15599Y12963D01*
X15513Y13049D01*
X15428Y13049D01*
X15343Y12963D01*
X15343Y12877D01*
X15428Y12792D01*
X15513Y12792D01*
X15599Y12877D01*
X16800Y13100D02*
X14800Y13100D01*
X15550Y14100D02*
X14800Y14100D01*
X14800Y13100D01*
X16800Y14100D02*
X15883Y14100D01*
X15717Y14100D02*
X15717Y13767D01*
X15633Y14017D02*
X15717Y14100D01*
X16800Y14100D02*
X16800Y13100D01*
G54D12*
X6300Y16200D02*
X8170Y16200D01*
X8170Y12184D01*
X6300Y12184D01*
X6300Y16200D01*
X17077Y10550D02*
X17176Y10550D01*
X17176Y10400D01*
X17077Y10300D01*
X16977Y10300D01*
X16878Y10400D01*
X16878Y10700D01*
X16977Y10800D01*
X17176Y10800D01*
X17326Y10300D02*
X17326Y10600D01*
X17326Y10650D01*
X17326Y10600D02*
X17376Y10650D01*
X17475Y10650D01*
X17525Y10600D01*
X17525Y10300D01*
X18072Y10400D02*
X17973Y10300D01*
X17873Y10300D01*
X17774Y10400D01*
X17774Y10500D01*
X17873Y10600D01*
X17973Y10600D01*
X18072Y10500D01*
X18072Y10800D02*
X18072Y10300D01*
X16878Y11800D02*
X17027Y11300D01*
X17176Y11800D01*
X17475Y11300D02*
X17475Y11600D01*
X17475Y11700D02*
X17475Y11750D01*
X17774Y11400D02*
X17873Y11300D01*
X17973Y11300D01*
X18072Y11400D01*
X18072Y11550D01*
X17973Y11650D01*
X17873Y11650D01*
X17774Y11550D01*
X17774Y11400D01*
X17624Y12800D02*
X17326Y12800D01*
X17326Y12600D01*
X17525Y12600D01*
X17624Y12500D01*
X17624Y12400D01*
X17525Y12300D01*
X17326Y12300D01*
X17774Y12800D02*
X17923Y12300D01*
X18072Y12800D01*
X1845Y9221D02*
X1958Y9221D01*
X1845Y9793D02*
X1958Y9793D01*
X1902Y9221D02*
X1902Y9793D01*
X2243Y9221D02*
X2243Y9793D01*
X2584Y9221D01*
X2584Y9793D01*
X2926Y9221D02*
X2926Y9793D01*
X2755Y9793D02*
X3096Y9793D01*
X3324Y9679D02*
X3438Y9793D01*
X3438Y9221D01*
X3267Y9221D02*
X3608Y9221D01*
X1845Y8221D02*
X1958Y8221D01*
X1845Y8793D02*
X1958Y8793D01*
X1902Y8221D02*
X1902Y8793D01*
X2243Y8221D02*
X2243Y8793D01*
X2584Y8221D01*
X2584Y8793D01*
X2926Y8221D02*
X2926Y8793D01*
X2755Y8793D02*
X3096Y8793D01*
X3267Y8679D02*
X3381Y8793D01*
X3494Y8793D01*
X3608Y8679D01*
X3608Y8336D01*
X3494Y8221D01*
X3381Y8221D01*
X3267Y8336D01*
X3267Y8679D01*
X3608Y8679D02*
X3267Y8336D01*
X1877Y7221D02*
X1990Y7221D01*
X1877Y7793D02*
X1990Y7793D01*
X1934Y7221D02*
X1934Y7793D01*
X2275Y7221D02*
X2275Y7793D01*
X2616Y7221D01*
X2616Y7793D01*
X2958Y7221D02*
X2958Y7793D01*
X2787Y7793D02*
X3128Y7793D01*
X15414Y728D02*
X15529Y614D01*
X15529Y501D01*
X15414Y387D01*
X15071Y387D01*
X14957Y501D01*
X14957Y614D01*
X15071Y728D01*
X15529Y899D02*
X15186Y899D01*
X14957Y1013D01*
X14957Y1126D01*
X15186Y1240D01*
X15529Y1240D01*
X15357Y899D02*
X15357Y1240D01*
X15529Y1411D02*
X14957Y1411D01*
X15529Y1752D01*
X14957Y1752D01*
X14957Y1923D02*
X15529Y1923D01*
X15529Y2264D01*
X18386Y2052D02*
X18271Y2166D01*
X18271Y2279D01*
X18386Y2393D01*
X18729Y2393D01*
X18843Y2279D01*
X18843Y2166D01*
X18729Y2052D01*
X18271Y1881D02*
X18614Y1881D01*
X18843Y1767D01*
X18843Y1654D01*
X18614Y1540D01*
X18271Y1540D01*
X18443Y1881D02*
X18443Y1540D01*
X18271Y1369D02*
X18843Y1369D01*
X18271Y1028D01*
X18843Y1028D01*
X18271Y857D02*
X18843Y857D01*
X18271Y516D02*
X18843Y516D01*
X18557Y857D02*
X18557Y516D01*
X2104Y4486D02*
X1990Y4371D01*
X1877Y4371D01*
X1763Y4486D01*
X1763Y4829D01*
X1877Y4943D01*
X1990Y4943D01*
X2104Y4829D01*
X2275Y4943D02*
X2275Y4371D01*
X2616Y4371D01*
X2787Y4371D02*
X2787Y4943D01*
X2787Y4657D02*
X2844Y4657D01*
X3128Y4943D01*
X2844Y4657D02*
X3128Y4371D01*
X1731Y3371D02*
X1731Y3943D01*
X1902Y3657D01*
X2072Y3943D01*
X2072Y3371D01*
X2243Y3486D02*
X2357Y3371D01*
X2470Y3371D01*
X2584Y3486D01*
X2584Y3829D01*
X2470Y3943D01*
X2357Y3943D01*
X2243Y3829D01*
X2243Y3486D01*
X2755Y3486D02*
X2869Y3371D01*
X2982Y3371D01*
X3096Y3486D01*
X2755Y3829D01*
X2869Y3943D01*
X2982Y3943D01*
X3096Y3829D01*
X3381Y3371D02*
X3494Y3371D01*
X3381Y3943D02*
X3494Y3943D01*
X3438Y3371D02*
X3438Y3943D01*
X1731Y2271D02*
X1731Y2843D01*
X1902Y2557D01*
X2072Y2843D01*
X2072Y2271D01*
X2357Y2271D02*
X2470Y2271D01*
X2357Y2843D02*
X2470Y2843D01*
X2414Y2271D02*
X2414Y2843D01*
X2755Y2386D02*
X2869Y2271D01*
X2982Y2271D01*
X3096Y2386D01*
X2755Y2729D01*
X2869Y2843D01*
X2982Y2843D01*
X3096Y2729D01*
X3267Y2386D02*
X3381Y2271D01*
X3494Y2271D01*
X3608Y2386D01*
X3608Y2729D01*
X3494Y2843D01*
X3381Y2843D01*
X3267Y2729D01*
X3267Y2386D01*
X2136Y1386D02*
X2022Y1271D01*
X1909Y1271D01*
X1795Y1386D01*
X1795Y1729D01*
X1909Y1843D01*
X2022Y1843D01*
X2136Y1729D01*
X2307Y1386D02*
X2421Y1271D01*
X2534Y1271D01*
X2648Y1386D01*
X2307Y1729D01*
X2421Y1843D01*
X2534Y1843D01*
X2648Y1729D01*
X8938Y2586D02*
X8824Y2471D01*
X8711Y2471D01*
X8597Y2586D01*
X8597Y2929D01*
X8711Y3043D01*
X8824Y3043D01*
X8938Y2929D01*
X9109Y3043D02*
X9109Y2471D01*
X9450Y2471D01*
X9621Y2471D02*
X9621Y3043D01*
X9621Y2757D02*
X9678Y2757D01*
X9962Y3043D01*
X9678Y2757D02*
X9962Y2471D01*
X10133Y2586D02*
X10247Y2471D01*
X10360Y2471D01*
X10474Y2586D01*
X10474Y2929D01*
X10360Y3043D01*
X10247Y3043D01*
X10133Y2929D01*
X10133Y2586D01*
G54D13*
G36*
X1500Y18800D02*
X1500Y18800D01*
X2000Y19200D01*
X2000Y18450D01*
X1500Y18800D01*
D02*
G37*
X2000Y19200D01*
X2000Y18450D01*
X1500Y18800D01*
G54D14*
X8850Y8550D02*
X9950Y8550D01*
X9950Y7850D02*
X8850Y7850D01*
X8850Y8550D01*
X9950Y8550D02*
X9950Y7850D01*
X13650Y17250D02*
X13650Y18350D01*
X14350Y18350D02*
X14350Y17250D01*
X13650Y17250D01*
X13650Y18350D02*
X14350Y18350D01*
X11450Y15650D02*
X11450Y16750D01*
X12150Y16750D02*
X12150Y15650D01*
X11450Y15650D01*
X11450Y16750D02*
X12150Y16750D01*
X12850Y5750D02*
X13950Y5750D01*
X13950Y5050D02*
X12850Y5050D01*
X12850Y5750D01*
X13950Y5750D02*
X13950Y5050D01*
X5050Y3150D02*
X6150Y3150D01*
X6150Y2450D02*
X5050Y2450D01*
X5050Y3150D01*
X6150Y3150D02*
X6150Y2450D01*
X10450Y6050D02*
X10450Y7150D01*
X11150Y7150D02*
X11150Y6050D01*
X10450Y6050D01*
X10450Y7150D02*
X11150Y7150D01*
X11950Y1250D02*
X10850Y1250D01*
X10850Y1950D02*
X11950Y1950D01*
X11950Y1250D01*
X10850Y1250D02*
X10850Y1950D01*
X10150Y16750D02*
X10150Y15650D01*
X9450Y15650D02*
X9450Y16750D01*
X10150Y16750D01*
X10150Y15650D02*
X9450Y15650D01*
X4250Y12650D02*
X4250Y13750D01*
X4950Y13750D02*
X4950Y12650D01*
X4250Y12650D01*
X4250Y13750D02*
X4950Y13750D01*
G54D15*
X12435Y3630D02*
X12435Y2370D01*
X14365Y2370D02*
X14365Y3630D01*
X12435Y3630D01*
X12435Y2370D02*
X14365Y2370D01*
X13072Y15629D02*
X13328Y15629D01*
X13328Y16771D02*
X13072Y16771D01*
X13072Y15629D01*
X13328Y15629D02*
X13328Y16771D01*
X6170Y6913D02*
X6170Y3487D01*
X7430Y3487D02*
X7430Y6913D01*
X7430Y6913D02*
X6170Y6913D01*
X6170Y3487D02*
X7430Y3487D01*
G54D16*
X13872Y3236D02*
G75*
D01*
G02X13872Y3236I99J0*
G01*
G54D17*
X14433Y4260D02*
G75*
D01*
G02X14433Y4260I50J0*
G01*
X12600Y16889D02*
G75*
D01*
G02X12600Y16889I49J0*
G01*
X8011Y3369D02*
G75*
D01*
G02X8011Y3369I49J0*
G01*
G54D18*
X16060Y650D02*
X16610Y650D01*
X16610Y310D01*
X16060Y300D02*
X16060Y640D01*
X15809Y2761D02*
X17991Y2761D01*
X17991Y281D01*
X15809Y281D01*
X15809Y2761D01*
X9970Y7400D02*
X8740Y7400D01*
X8740Y5850D01*
X9970Y5850D01*
X9970Y7400D01*
G54D19*
X6918Y3881D02*
G75*
D01*
G02X6918Y3881I118J0*
G01*
G54D20*
X5830Y16190D03*
G54D21*
X12656Y11300D03*
X14256Y11300D03*
G54D22*
X8525Y7330D03*

M02*
