G04 Generated by Ultiboard 14.1 *
%FSLAX24Y24*%
%MOIN*%

%ADD10C,0.0001*%
%ADD11C,0.0100*%
%ADD12C,0.0150*%
%ADD13C,0.0236*%
%ADD14C,0.0674*%
%ADD15R,0.0320X0.0320*%
%ADD16C,0.0350*%
%ADD17R,0.0208X0.0208*%
%ADD18C,0.0392*%
%ADD19C,0.0633*%
%ADD20C,0.0717*%


G04 ColorRGB 0000FF for the following layer *
%LNCopper Bottom*%
%LPD*%
G54D10*
G36*
X19534Y19534D02*
X19534Y19534D01*
X19534Y151D01*
X151Y151D01*
X151Y19534D01*
X19534Y19534D01*
D02*
G37*
%LPC*%
G36*
X358Y18696D02*
G75*
D01*
G03X696Y18358I338J0*
G01*
X696Y18358D01*
X904Y18358D01*
G75*
D01*
G03X1242Y18696I0J338*
G01*
X1242Y18696D01*
X1242Y18904D01*
G74*
D01*
G03X904Y19242I338J0*
G01*
X904Y19242D01*
X696Y19242D01*
G75*
D01*
G03X358Y18904I0J-338*
G01*
X358Y18904D01*
X358Y18696D01*
D02*
G37*
G36*
X18392Y11394D02*
G75*
D01*
G03X18392Y11806I408J206*
G01*
X18392Y11806D01*
X17385Y11806D01*
X15739Y13452D01*
G75*
D01*
G03X15742Y13496I-335J44*
G01*
X15742Y13496D01*
X15742Y13704D01*
G74*
D01*
G03X15404Y14042I338J0*
G01*
X15404Y14042D01*
X15196Y14042D01*
G75*
D01*
G03X14874Y13806I0J-338*
G01*
X14874Y13806D01*
X14635Y13806D01*
X13043Y15398D01*
G75*
D01*
G03X12752Y15107I-243J-48*
G01*
X12752Y15107D01*
X14404Y13454D01*
G74*
D01*
G03X14489Y13403I146J146*
G01*
G75*
D01*
G03X14550Y13394I61J197*
G01*
X14550Y13394D01*
X14874Y13394D01*
G75*
D01*
G03X15196Y13158I322J102*
G01*
X15196Y13158D01*
X15404Y13158D01*
G74*
D01*
G03X15448Y13161I0J338*
G01*
X15448Y13161D01*
X17154Y11454D01*
G74*
D01*
G03X17252Y11400I146J146*
G01*
G75*
D01*
G03X17300Y11394I48J200*
G01*
X17300Y11394D01*
X18392Y11394D01*
D02*
G37*
G36*
X18747Y10433D02*
G75*
D01*
G03X18747Y10433I53J167*
G01*
D02*
G37*
G36*
X18696Y12158D02*
X18696Y12158D01*
X18904Y12158D01*
G75*
D01*
G03X19242Y12496I0J338*
G01*
X19242Y12496D01*
X19242Y12704D01*
G74*
D01*
G03X18904Y13042I338J0*
G01*
X18904Y13042D01*
X18696Y13042D01*
G75*
D01*
G03X18358Y12704I0J-338*
G01*
X18358Y12704D01*
X18358Y12496D01*
G75*
D01*
G03X18696Y12158I338J0*
G01*
D02*
G37*
G36*
X355Y9298D02*
G75*
D01*
G03X355Y9298I445J102*
G01*
D02*
G37*
G36*
X3419Y14800D02*
X3419Y14800D01*
X3419Y9175D01*
X2892Y8648D01*
G75*
D01*
G03X3148Y8392I8J-248*
G01*
X3148Y8392D01*
X3728Y8972D01*
G75*
D01*
G03X3781Y9100I-128J128*
G01*
X3781Y9100D01*
X3781Y13384D01*
G74*
D01*
G03X3912Y13268I219J116*
G01*
X3912Y13268D01*
X3912Y13412D01*
X3781Y13412D01*
X3781Y13588D01*
X3912Y13588D01*
X3912Y13732D01*
G74*
D01*
G03X3781Y13616I88J232*
G01*
X3781Y13616D01*
X3781Y14725D01*
X4408Y15352D01*
G75*
D01*
G03X4152Y15608I-8J248*
G01*
X4152Y15608D01*
X3472Y14928D01*
G75*
D01*
G03X3419Y14800I128J-128*
G01*
D02*
G37*
G36*
X13568Y9412D02*
G74*
D01*
G03X13712Y9268I232J88*
G01*
X13712Y9268D01*
X13712Y9412D01*
X13568Y9412D01*
D02*
G37*
G36*
X14032Y9412D02*
X14032Y9412D01*
X13888Y9412D01*
X13888Y9268D01*
G74*
D01*
G03X14032Y9412I88J232*
G01*
D02*
G37*
G36*
X19227Y10438D02*
X19227Y10438D01*
X18962Y10438D01*
X18962Y10173D01*
G74*
D01*
G03X19227Y10438I162J427*
G01*
D02*
G37*
G36*
X18962Y11027D02*
X18962Y11027D01*
X18962Y10762D01*
X19227Y10762D01*
G74*
D01*
G03X18962Y11027I427J162*
G01*
D02*
G37*
G36*
X696Y1158D02*
X696Y1158D01*
X904Y1158D01*
G75*
D01*
G03X1242Y1496I0J338*
G01*
X1242Y1496D01*
X1242Y1704D01*
G74*
D01*
G03X904Y2042I338J0*
G01*
X904Y2042D01*
X696Y2042D01*
G75*
D01*
G03X358Y1704I0J-338*
G01*
X358Y1704D01*
X358Y1496D01*
G75*
D01*
G03X696Y1158I338J0*
G01*
D02*
G37*
G36*
X7502Y2000D02*
G75*
D01*
G03X7502Y2000I498J0*
G01*
D02*
G37*
G36*
X343Y2600D02*
G75*
D01*
G03X343Y2600I457J0*
G01*
D02*
G37*
G36*
X5768Y2288D02*
X5768Y2288D01*
X5912Y2288D01*
X5912Y2432D01*
G74*
D01*
G03X5768Y2288I88J232*
G01*
D02*
G37*
G36*
X6088Y2432D02*
X6088Y2432D01*
X6088Y2288D01*
X6232Y2288D01*
G74*
D01*
G03X6088Y2432I232J88*
G01*
D02*
G37*
G36*
X6232Y2112D02*
X6232Y2112D01*
X6088Y2112D01*
X6088Y1968D01*
G74*
D01*
G03X6232Y2112I88J232*
G01*
D02*
G37*
G36*
X5912Y1968D02*
X5912Y1968D01*
X5912Y2112D01*
X5768Y2112D01*
G74*
D01*
G03X5912Y1968I232J88*
G01*
D02*
G37*
G36*
X5941Y2200D02*
G75*
D01*
G03X5941Y2200I59J0*
G01*
D02*
G37*
G36*
X343Y3600D02*
G75*
D01*
G03X343Y3600I457J0*
G01*
D02*
G37*
G36*
X343Y4600D02*
G75*
D01*
G03X343Y4600I457J0*
G01*
D02*
G37*
G36*
X1233Y7219D02*
X1233Y7219D01*
X4525Y7219D01*
X6952Y4792D01*
G75*
D01*
G03X7208Y5048I248J8*
G01*
X7208Y5048D01*
X4728Y7528D01*
G74*
D01*
G03X4662Y7570I128J128*
G01*
G75*
D01*
G03X4600Y7581I-62J-170*
G01*
X4600Y7581D01*
X1233Y7581D01*
G74*
D01*
G03X904Y7842I329J77*
G01*
X904Y7842D01*
X696Y7842D01*
G75*
D01*
G03X358Y7504I0J-338*
G01*
X358Y7504D01*
X358Y7296D01*
G75*
D01*
G03X696Y6958I338J0*
G01*
X696Y6958D01*
X904Y6958D01*
G74*
D01*
G03X1233Y7219I0J338*
G01*
D02*
G37*
G36*
X343Y8400D02*
G75*
D01*
G03X343Y8400I457J0*
G01*
D02*
G37*
G36*
X1208Y17594D02*
X1208Y17594D01*
X3165Y17594D01*
X3604Y17154D01*
G75*
D01*
G03X3750Y17094I146J146*
G01*
X3750Y17094D01*
X4944Y17094D01*
X4944Y13185D01*
X4552Y12793D01*
G75*
D01*
G03X4843Y12502I48J-243*
G01*
X4843Y12502D01*
X5295Y12954D01*
G75*
D01*
G03X5356Y13100I-145J146*
G01*
X5356Y13100D01*
X5356Y17094D01*
X7350Y17094D01*
G74*
D01*
G03X7496Y17155I0J206*
G01*
X7496Y17155D01*
X8098Y17757D01*
G75*
D01*
G03X7807Y18048I-48J243*
G01*
X7807Y18048D01*
X7265Y17506D01*
X3835Y17506D01*
X3396Y17945D01*
G74*
D01*
G03X3250Y18006I146J145*
G01*
X3250Y18006D01*
X1208Y18006D01*
G75*
D01*
G03X1208Y17594I-408J-206*
G01*
D02*
G37*
G36*
X343Y13800D02*
G75*
D01*
G03X343Y13800I457J0*
G01*
D02*
G37*
G36*
X4232Y13412D02*
X4232Y13412D01*
X4088Y13412D01*
X4088Y13268D01*
G74*
D01*
G03X4232Y13412I88J232*
G01*
D02*
G37*
G36*
X4088Y13732D02*
X4088Y13732D01*
X4088Y13588D01*
X4232Y13588D01*
G74*
D01*
G03X4088Y13732I232J88*
G01*
D02*
G37*
G36*
X3941Y13500D02*
G75*
D01*
G03X3941Y13500I59J0*
G01*
D02*
G37*
G36*
X343Y14800D02*
G75*
D01*
G03X343Y14800I457J0*
G01*
D02*
G37*
G36*
X343Y15800D02*
G75*
D01*
G03X343Y15800I457J0*
G01*
D02*
G37*
G36*
X638Y16373D02*
X638Y16373D01*
X638Y16638D01*
X373Y16638D01*
G74*
D01*
G03X638Y16373I427J162*
G01*
D02*
G37*
G36*
X1227Y16638D02*
X1227Y16638D01*
X962Y16638D01*
X962Y16373D01*
G74*
D01*
G03X1227Y16638I162J427*
G01*
D02*
G37*
G36*
X625Y16800D02*
G75*
D01*
G03X625Y16800I175J0*
G01*
D02*
G37*
G36*
X373Y16962D02*
X373Y16962D01*
X638Y16962D01*
X638Y17227D01*
G74*
D01*
G03X373Y16962I162J427*
G01*
D02*
G37*
G36*
X962Y17227D02*
X962Y17227D01*
X962Y16962D01*
X1227Y16962D01*
G74*
D01*
G03X962Y17227I427J162*
G01*
D02*
G37*
G36*
X10541Y1600D02*
G75*
D01*
G03X10541Y1600I59J0*
G01*
D02*
G37*
G36*
X10832Y1512D02*
X10832Y1512D01*
X10688Y1512D01*
X10688Y1368D01*
G74*
D01*
G03X10832Y1512I88J232*
G01*
D02*
G37*
G36*
X10512Y1368D02*
X10512Y1368D01*
X10512Y1512D01*
X10368Y1512D01*
G74*
D01*
G03X10512Y1368I232J88*
G01*
D02*
G37*
G36*
X16581Y5767D02*
G75*
D01*
G03X16842Y6096I-77J329*
G01*
X16842Y6096D01*
X16842Y6304D01*
G74*
D01*
G03X16504Y6642I338J0*
G01*
X16504Y6642D01*
X16296Y6642D01*
G75*
D01*
G03X15958Y6304I0J-338*
G01*
X15958Y6304D01*
X15958Y6096D01*
G75*
D01*
G03X16219Y5767I338J0*
G01*
X16219Y5767D01*
X16219Y2076D01*
G74*
D01*
G03X15923Y1760I21J316*
G01*
X15923Y1760D01*
X15923Y1440D01*
G75*
D01*
G03X16240Y1123I317J0*
G01*
X16240Y1123D01*
X16560Y1123D01*
G75*
D01*
G03X16877Y1440I0J317*
G01*
X16877Y1440D01*
X16877Y1760D01*
G74*
D01*
G03X16581Y2076I317J0*
G01*
X16581Y2076D01*
X16581Y5767D01*
D02*
G37*
G36*
X16923Y1600D02*
G75*
D01*
G03X16923Y1600I477J0*
G01*
D02*
G37*
G36*
X10368Y1688D02*
X10368Y1688D01*
X10512Y1688D01*
X10512Y1832D01*
G74*
D01*
G03X10368Y1688I88J232*
G01*
D02*
G37*
G36*
X10688Y1832D02*
X10688Y1832D01*
X10688Y1688D01*
X10832Y1688D01*
G74*
D01*
G03X10688Y1832I232J88*
G01*
D02*
G37*
G36*
X14368Y1988D02*
X14368Y1988D01*
X14512Y1988D01*
X14512Y2132D01*
G74*
D01*
G03X14368Y1988I88J232*
G01*
D02*
G37*
G36*
X14688Y2132D02*
X14688Y2132D01*
X14688Y1988D01*
X14832Y1988D01*
G74*
D01*
G03X14688Y2132I232J88*
G01*
D02*
G37*
G36*
X14832Y1812D02*
X14832Y1812D01*
X14688Y1812D01*
X14688Y1668D01*
G74*
D01*
G03X14832Y1812I88J232*
G01*
D02*
G37*
G36*
X14512Y1668D02*
X14512Y1668D01*
X14512Y1812D01*
X14368Y1812D01*
G74*
D01*
G03X14512Y1668I232J88*
G01*
D02*
G37*
G36*
X14541Y1900D02*
G75*
D01*
G03X14541Y1900I59J0*
G01*
D02*
G37*
G36*
X10168Y5488D02*
X10168Y5488D01*
X10312Y5488D01*
X10312Y5632D01*
G74*
D01*
G03X10168Y5488I88J232*
G01*
D02*
G37*
G36*
X10312Y5168D02*
X10312Y5168D01*
X10312Y5312D01*
X10168Y5312D01*
G74*
D01*
G03X10312Y5168I232J88*
G01*
D02*
G37*
G36*
X10488Y5632D02*
X10488Y5632D01*
X10488Y5488D01*
X10632Y5488D01*
G74*
D01*
G03X10488Y5632I232J88*
G01*
D02*
G37*
G36*
X10632Y5312D02*
X10632Y5312D01*
X10488Y5312D01*
X10488Y5168D01*
G74*
D01*
G03X10632Y5312I88J232*
G01*
D02*
G37*
G36*
X10341Y5400D02*
G75*
D01*
G03X10341Y5400I59J0*
G01*
D02*
G37*
G36*
X13968Y5488D02*
X13968Y5488D01*
X14112Y5488D01*
X14112Y5632D01*
G74*
D01*
G03X13968Y5488I88J232*
G01*
D02*
G37*
G36*
X14141Y5400D02*
G75*
D01*
G03X14141Y5400I59J0*
G01*
D02*
G37*
G36*
X14112Y5168D02*
X14112Y5168D01*
X14112Y5312D01*
X13968Y5312D01*
G74*
D01*
G03X14112Y5168I232J88*
G01*
D02*
G37*
G36*
X14288Y5632D02*
X14288Y5632D01*
X14288Y5488D01*
X14432Y5488D01*
G74*
D01*
G03X14288Y5632I232J88*
G01*
D02*
G37*
G36*
X14432Y5312D02*
X14432Y5312D01*
X14288Y5312D01*
X14288Y5168D01*
G74*
D01*
G03X14432Y5312I88J232*
G01*
D02*
G37*
G36*
X16943Y6200D02*
G75*
D01*
G03X16943Y6200I457J0*
G01*
D02*
G37*
G36*
X10212Y8568D02*
X10212Y8568D01*
X10212Y8712D01*
X10068Y8712D01*
G74*
D01*
G03X10212Y8568I232J88*
G01*
D02*
G37*
G36*
X10532Y8712D02*
X10532Y8712D01*
X10388Y8712D01*
X10388Y8568D01*
G74*
D01*
G03X10532Y8712I88J232*
G01*
D02*
G37*
G36*
X10068Y8888D02*
X10068Y8888D01*
X10212Y8888D01*
X10212Y9032D01*
G74*
D01*
G03X10068Y8888I88J232*
G01*
D02*
G37*
G36*
X10388Y9032D02*
X10388Y9032D01*
X10388Y8888D01*
X10532Y8888D01*
G74*
D01*
G03X10388Y9032I232J88*
G01*
D02*
G37*
G36*
X10241Y8800D02*
G75*
D01*
G03X10241Y8800I59J0*
G01*
D02*
G37*
G36*
X16928Y18066D02*
G75*
D01*
G03X16928Y18066I328J0*
G01*
D02*
G37*
G36*
X13741Y9500D02*
G75*
D01*
G03X13741Y9500I59J0*
G01*
D02*
G37*
G36*
X13568Y9588D02*
X13568Y9588D01*
X13712Y9588D01*
X13712Y9732D01*
G74*
D01*
G03X13568Y9588I88J232*
G01*
D02*
G37*
G36*
X13888Y9732D02*
X13888Y9732D01*
X13888Y9588D01*
X14032Y9588D01*
G74*
D01*
G03X13888Y9732I232J88*
G01*
D02*
G37*
G36*
X18638Y10173D02*
X18638Y10173D01*
X18638Y10438D01*
X18373Y10438D01*
G74*
D01*
G03X18638Y10173I427J162*
G01*
D02*
G37*
G36*
X18373Y10762D02*
X18373Y10762D01*
X18638Y10762D01*
X18638Y11027D01*
G74*
D01*
G03X18373Y10762I162J427*
G01*
D02*
G37*
G36*
X14424Y16094D02*
X14424Y16094D01*
X16094Y16094D01*
X16094Y14008D01*
G75*
D01*
G03X16506Y14008I206J-408*
G01*
X16506Y14008D01*
X16506Y16162D01*
G75*
D01*
G03X16162Y16506I-206J138*
G01*
X16162Y16506D01*
X14300Y16506D01*
G75*
D01*
G03X14154Y16446I0J-206*
G01*
X14154Y16446D01*
X14152Y16443D01*
G75*
D01*
G03X14424Y16094I48J-243*
G01*
D02*
G37*
G36*
X11068Y13838D02*
X11068Y13838D01*
X11212Y13838D01*
X11212Y13982D01*
G74*
D01*
G03X11068Y13838I88J232*
G01*
D02*
G37*
G36*
X11388Y13982D02*
X11388Y13982D01*
X11388Y13838D01*
X11532Y13838D01*
G74*
D01*
G03X11388Y13982I232J88*
G01*
D02*
G37*
G36*
X11532Y13662D02*
X11532Y13662D01*
X11388Y13662D01*
X11388Y13518D01*
G74*
D01*
G03X11532Y13662I88J232*
G01*
D02*
G37*
G36*
X11212Y13518D02*
X11212Y13518D01*
X11212Y13662D01*
X11068Y13662D01*
G74*
D01*
G03X11212Y13518I232J88*
G01*
D02*
G37*
G36*
X11241Y13750D02*
G75*
D01*
G03X11241Y13750I59J0*
G01*
D02*
G37*
G36*
X10212Y15468D02*
X10212Y15468D01*
X10212Y15612D01*
X10068Y15612D01*
G74*
D01*
G03X10212Y15468I232J88*
G01*
D02*
G37*
G36*
X10241Y15700D02*
G75*
D01*
G03X10241Y15700I59J0*
G01*
D02*
G37*
G36*
X10532Y15612D02*
X10532Y15612D01*
X10388Y15612D01*
X10388Y15468D01*
G74*
D01*
G03X10532Y15612I88J232*
G01*
D02*
G37*
G36*
X10068Y15788D02*
X10068Y15788D01*
X10212Y15788D01*
X10212Y15932D01*
G74*
D01*
G03X10068Y15788I88J232*
G01*
D02*
G37*
G36*
X10388Y15932D02*
X10388Y15932D01*
X10388Y15788D01*
X10532Y15788D01*
G74*
D01*
G03X10388Y15932I232J88*
G01*
D02*
G37*
G36*
X16928Y16334D02*
G75*
D01*
G03X16928Y16334I328J0*
G01*
D02*
G37*
G36*
X11741Y17000D02*
G75*
D01*
G03X11741Y17000I59J0*
G01*
D02*
G37*
G36*
X11568Y17088D02*
X11568Y17088D01*
X11712Y17088D01*
X11712Y17232D01*
G74*
D01*
G03X11568Y17088I88J232*
G01*
D02*
G37*
G36*
X11712Y16768D02*
X11712Y16768D01*
X11712Y16912D01*
X11568Y16912D01*
G74*
D01*
G03X11712Y16768I232J88*
G01*
D02*
G37*
G36*
X11888Y17232D02*
X11888Y17232D01*
X11888Y17088D01*
X12032Y17088D01*
G74*
D01*
G03X11888Y17232I232J88*
G01*
D02*
G37*
G36*
X12032Y16912D02*
X12032Y16912D01*
X11888Y16912D01*
X11888Y16768D01*
G74*
D01*
G03X12032Y16912I88J232*
G01*
D02*
G37*
G36*
X15018Y17938D02*
X15018Y17938D01*
X15162Y17938D01*
X15162Y18082D01*
G74*
D01*
G03X15018Y17938I88J232*
G01*
D02*
G37*
G36*
X15338Y18082D02*
X15338Y18082D01*
X15338Y17938D01*
X15482Y17938D01*
G74*
D01*
G03X15338Y18082I232J88*
G01*
D02*
G37*
G36*
X15482Y17762D02*
X15482Y17762D01*
X15338Y17762D01*
X15338Y17618D01*
G74*
D01*
G03X15482Y17762I88J232*
G01*
D02*
G37*
G36*
X15162Y17618D02*
X15162Y17618D01*
X15162Y17762D01*
X15018Y17762D01*
G74*
D01*
G03X15162Y17618I232J88*
G01*
D02*
G37*
G36*
X15191Y17850D02*
G75*
D01*
G03X15191Y17850I59J0*
G01*
D02*
G37*
%LPD*%
G54D11*
X358Y18696D02*
G75*
D01*
G03X696Y18358I338J0*
G01*
X904Y18358D01*
G75*
D01*
G03X1242Y18696I0J338*
G01*
X1242Y18904D01*
G74*
D01*
G03X904Y19242I338J0*
G01*
X696Y19242D01*
G75*
D01*
G03X358Y18904I0J-338*
G01*
X358Y18696D01*
X18392Y11394D02*
G75*
D01*
G03X18392Y11806I408J206*
G01*
X17385Y11806D01*
X15739Y13452D01*
G75*
D01*
G03X15742Y13496I-335J44*
G01*
X15742Y13704D01*
G74*
D01*
G03X15404Y14042I338J0*
G01*
X15196Y14042D01*
G75*
D01*
G03X14874Y13806I0J-338*
G01*
X14635Y13806D01*
X13043Y15398D01*
G75*
D01*
G03X12752Y15107I-243J-48*
G01*
X14404Y13454D01*
G74*
D01*
G03X14489Y13403I146J146*
G01*
G75*
D01*
G03X14550Y13394I61J197*
G01*
X14874Y13394D01*
G75*
D01*
G03X15196Y13158I322J102*
G01*
X15404Y13158D01*
G74*
D01*
G03X15448Y13161I0J338*
G01*
X17154Y11454D01*
G74*
D01*
G03X17252Y11400I146J146*
G01*
G75*
D01*
G03X17300Y11394I48J200*
G01*
X18392Y11394D01*
X18747Y10433D02*
G75*
D01*
G03X18747Y10433I53J167*
G01*
X18696Y12158D02*
X18904Y12158D01*
G75*
D01*
G03X19242Y12496I0J338*
G01*
X19242Y12704D01*
G74*
D01*
G03X18904Y13042I338J0*
G01*
X18696Y13042D01*
G75*
D01*
G03X18358Y12704I0J-338*
G01*
X18358Y12496D01*
G75*
D01*
G03X18696Y12158I338J0*
G01*
X355Y9298D02*
G75*
D01*
G03X355Y9298I445J102*
G01*
X3419Y14800D02*
X3419Y9175D01*
X2892Y8648D01*
G75*
D01*
G03X3148Y8392I8J-248*
G01*
X3728Y8972D01*
G75*
D01*
G03X3781Y9100I-128J128*
G01*
X3781Y13384D01*
G74*
D01*
G03X3912Y13268I219J116*
G01*
X3912Y13412D01*
X3781Y13412D01*
X3781Y13588D01*
X3912Y13588D01*
X3912Y13732D01*
G74*
D01*
G03X3781Y13616I88J232*
G01*
X3781Y14725D01*
X4408Y15352D01*
G75*
D01*
G03X4152Y15608I-8J248*
G01*
X3472Y14928D01*
G75*
D01*
G03X3419Y14800I128J-128*
G01*
X13568Y9412D02*
G74*
D01*
G03X13712Y9268I232J88*
G01*
X13712Y9412D01*
X13568Y9412D01*
X14032Y9412D02*
X13888Y9412D01*
X13888Y9268D01*
G74*
D01*
G03X14032Y9412I88J232*
G01*
X19227Y10438D02*
X18962Y10438D01*
X18962Y10173D01*
G74*
D01*
G03X19227Y10438I162J427*
G01*
X18962Y11027D02*
X18962Y10762D01*
X19227Y10762D01*
G74*
D01*
G03X18962Y11027I427J162*
G01*
X696Y1158D02*
X904Y1158D01*
G75*
D01*
G03X1242Y1496I0J338*
G01*
X1242Y1704D01*
G74*
D01*
G03X904Y2042I338J0*
G01*
X696Y2042D01*
G75*
D01*
G03X358Y1704I0J-338*
G01*
X358Y1496D01*
G75*
D01*
G03X696Y1158I338J0*
G01*
X7502Y2000D02*
G75*
D01*
G03X7502Y2000I498J0*
G01*
X343Y2600D02*
G75*
D01*
G03X343Y2600I457J0*
G01*
X5768Y2288D02*
X5912Y2288D01*
X5912Y2432D01*
G74*
D01*
G03X5768Y2288I88J232*
G01*
X6088Y2432D02*
X6088Y2288D01*
X6232Y2288D01*
G74*
D01*
G03X6088Y2432I232J88*
G01*
X6232Y2112D02*
X6088Y2112D01*
X6088Y1968D01*
G74*
D01*
G03X6232Y2112I88J232*
G01*
X5912Y1968D02*
X5912Y2112D01*
X5768Y2112D01*
G74*
D01*
G03X5912Y1968I232J88*
G01*
X5941Y2200D02*
G75*
D01*
G03X5941Y2200I59J0*
G01*
X343Y3600D02*
G75*
D01*
G03X343Y3600I457J0*
G01*
X343Y4600D02*
G75*
D01*
G03X343Y4600I457J0*
G01*
X1233Y7219D02*
X4525Y7219D01*
X6952Y4792D01*
G75*
D01*
G03X7208Y5048I248J8*
G01*
X4728Y7528D01*
G74*
D01*
G03X4662Y7570I128J128*
G01*
G75*
D01*
G03X4600Y7581I-62J-170*
G01*
X1233Y7581D01*
G74*
D01*
G03X904Y7842I329J77*
G01*
X696Y7842D01*
G75*
D01*
G03X358Y7504I0J-338*
G01*
X358Y7296D01*
G75*
D01*
G03X696Y6958I338J0*
G01*
X904Y6958D01*
G74*
D01*
G03X1233Y7219I0J338*
G01*
X343Y8400D02*
G75*
D01*
G03X343Y8400I457J0*
G01*
X1208Y17594D02*
X3165Y17594D01*
X3604Y17154D01*
G75*
D01*
G03X3750Y17094I146J146*
G01*
X4944Y17094D01*
X4944Y13185D01*
X4552Y12793D01*
G75*
D01*
G03X4843Y12502I48J-243*
G01*
X5295Y12954D01*
G75*
D01*
G03X5356Y13100I-145J146*
G01*
X5356Y17094D01*
X7350Y17094D01*
G74*
D01*
G03X7496Y17155I0J206*
G01*
X8098Y17757D01*
G75*
D01*
G03X7807Y18048I-48J243*
G01*
X7265Y17506D01*
X3835Y17506D01*
X3396Y17945D01*
G74*
D01*
G03X3250Y18006I146J145*
G01*
X1208Y18006D01*
G75*
D01*
G03X1208Y17594I-408J-206*
G01*
X343Y13800D02*
G75*
D01*
G03X343Y13800I457J0*
G01*
X4232Y13412D02*
X4088Y13412D01*
X4088Y13268D01*
G74*
D01*
G03X4232Y13412I88J232*
G01*
X4088Y13732D02*
X4088Y13588D01*
X4232Y13588D01*
G74*
D01*
G03X4088Y13732I232J88*
G01*
X3941Y13500D02*
G75*
D01*
G03X3941Y13500I59J0*
G01*
X343Y14800D02*
G75*
D01*
G03X343Y14800I457J0*
G01*
X343Y15800D02*
G75*
D01*
G03X343Y15800I457J0*
G01*
X638Y16373D02*
X638Y16638D01*
X373Y16638D01*
G74*
D01*
G03X638Y16373I427J162*
G01*
X1227Y16638D02*
X962Y16638D01*
X962Y16373D01*
G74*
D01*
G03X1227Y16638I162J427*
G01*
X625Y16800D02*
G75*
D01*
G03X625Y16800I175J0*
G01*
X373Y16962D02*
X638Y16962D01*
X638Y17227D01*
G74*
D01*
G03X373Y16962I162J427*
G01*
X962Y17227D02*
X962Y16962D01*
X1227Y16962D01*
G74*
D01*
G03X962Y17227I427J162*
G01*
X10541Y1600D02*
G75*
D01*
G03X10541Y1600I59J0*
G01*
X10832Y1512D02*
X10688Y1512D01*
X10688Y1368D01*
G74*
D01*
G03X10832Y1512I88J232*
G01*
X10512Y1368D02*
X10512Y1512D01*
X10368Y1512D01*
G74*
D01*
G03X10512Y1368I232J88*
G01*
X16581Y5767D02*
G75*
D01*
G03X16842Y6096I-77J329*
G01*
X16842Y6304D01*
G74*
D01*
G03X16504Y6642I338J0*
G01*
X16296Y6642D01*
G75*
D01*
G03X15958Y6304I0J-338*
G01*
X15958Y6096D01*
G75*
D01*
G03X16219Y5767I338J0*
G01*
X16219Y2076D01*
G74*
D01*
G03X15923Y1760I21J316*
G01*
X15923Y1440D01*
G75*
D01*
G03X16240Y1123I317J0*
G01*
X16560Y1123D01*
G75*
D01*
G03X16877Y1440I0J317*
G01*
X16877Y1760D01*
G74*
D01*
G03X16581Y2076I317J0*
G01*
X16581Y5767D01*
X16923Y1600D02*
G75*
D01*
G03X16923Y1600I477J0*
G01*
X10368Y1688D02*
X10512Y1688D01*
X10512Y1832D01*
G74*
D01*
G03X10368Y1688I88J232*
G01*
X10688Y1832D02*
X10688Y1688D01*
X10832Y1688D01*
G74*
D01*
G03X10688Y1832I232J88*
G01*
X14368Y1988D02*
X14512Y1988D01*
X14512Y2132D01*
G74*
D01*
G03X14368Y1988I88J232*
G01*
X14688Y2132D02*
X14688Y1988D01*
X14832Y1988D01*
G74*
D01*
G03X14688Y2132I232J88*
G01*
X14832Y1812D02*
X14688Y1812D01*
X14688Y1668D01*
G74*
D01*
G03X14832Y1812I88J232*
G01*
X14512Y1668D02*
X14512Y1812D01*
X14368Y1812D01*
G74*
D01*
G03X14512Y1668I232J88*
G01*
X14541Y1900D02*
G75*
D01*
G03X14541Y1900I59J0*
G01*
X10168Y5488D02*
X10312Y5488D01*
X10312Y5632D01*
G74*
D01*
G03X10168Y5488I88J232*
G01*
X10312Y5168D02*
X10312Y5312D01*
X10168Y5312D01*
G74*
D01*
G03X10312Y5168I232J88*
G01*
X10488Y5632D02*
X10488Y5488D01*
X10632Y5488D01*
G74*
D01*
G03X10488Y5632I232J88*
G01*
X10632Y5312D02*
X10488Y5312D01*
X10488Y5168D01*
G74*
D01*
G03X10632Y5312I88J232*
G01*
X10341Y5400D02*
G75*
D01*
G03X10341Y5400I59J0*
G01*
X13968Y5488D02*
X14112Y5488D01*
X14112Y5632D01*
G74*
D01*
G03X13968Y5488I88J232*
G01*
X14141Y5400D02*
G75*
D01*
G03X14141Y5400I59J0*
G01*
X14112Y5168D02*
X14112Y5312D01*
X13968Y5312D01*
G74*
D01*
G03X14112Y5168I232J88*
G01*
X14288Y5632D02*
X14288Y5488D01*
X14432Y5488D01*
G74*
D01*
G03X14288Y5632I232J88*
G01*
X14432Y5312D02*
X14288Y5312D01*
X14288Y5168D01*
G74*
D01*
G03X14432Y5312I88J232*
G01*
X16943Y6200D02*
G75*
D01*
G03X16943Y6200I457J0*
G01*
X10212Y8568D02*
X10212Y8712D01*
X10068Y8712D01*
G74*
D01*
G03X10212Y8568I232J88*
G01*
X10532Y8712D02*
X10388Y8712D01*
X10388Y8568D01*
G74*
D01*
G03X10532Y8712I88J232*
G01*
X10068Y8888D02*
X10212Y8888D01*
X10212Y9032D01*
G74*
D01*
G03X10068Y8888I88J232*
G01*
X10388Y9032D02*
X10388Y8888D01*
X10532Y8888D01*
G74*
D01*
G03X10388Y9032I232J88*
G01*
X10241Y8800D02*
G75*
D01*
G03X10241Y8800I59J0*
G01*
X16928Y18066D02*
G75*
D01*
G03X16928Y18066I328J0*
G01*
X13741Y9500D02*
G75*
D01*
G03X13741Y9500I59J0*
G01*
X13568Y9588D02*
X13712Y9588D01*
X13712Y9732D01*
G74*
D01*
G03X13568Y9588I88J232*
G01*
X13888Y9732D02*
X13888Y9588D01*
X14032Y9588D01*
G74*
D01*
G03X13888Y9732I232J88*
G01*
X18638Y10173D02*
X18638Y10438D01*
X18373Y10438D01*
G74*
D01*
G03X18638Y10173I427J162*
G01*
X18373Y10762D02*
X18638Y10762D01*
X18638Y11027D01*
G74*
D01*
G03X18373Y10762I162J427*
G01*
X14424Y16094D02*
X16094Y16094D01*
X16094Y14008D01*
G75*
D01*
G03X16506Y14008I206J-408*
G01*
X16506Y16162D01*
G75*
D01*
G03X16162Y16506I-206J138*
G01*
X14300Y16506D01*
G75*
D01*
G03X14154Y16446I0J-206*
G01*
X14152Y16443D01*
G75*
D01*
G03X14424Y16094I48J-243*
G01*
X11068Y13838D02*
X11212Y13838D01*
X11212Y13982D01*
G74*
D01*
G03X11068Y13838I88J232*
G01*
X11388Y13982D02*
X11388Y13838D01*
X11532Y13838D01*
G74*
D01*
G03X11388Y13982I232J88*
G01*
X11532Y13662D02*
X11388Y13662D01*
X11388Y13518D01*
G74*
D01*
G03X11532Y13662I88J232*
G01*
X11212Y13518D02*
X11212Y13662D01*
X11068Y13662D01*
G74*
D01*
G03X11212Y13518I232J88*
G01*
X11241Y13750D02*
G75*
D01*
G03X11241Y13750I59J0*
G01*
X10212Y15468D02*
X10212Y15612D01*
X10068Y15612D01*
G74*
D01*
G03X10212Y15468I232J88*
G01*
X10241Y15700D02*
G75*
D01*
G03X10241Y15700I59J0*
G01*
X10532Y15612D02*
X10388Y15612D01*
X10388Y15468D01*
G74*
D01*
G03X10532Y15612I88J232*
G01*
X10068Y15788D02*
X10212Y15788D01*
X10212Y15932D01*
G74*
D01*
G03X10068Y15788I88J232*
G01*
X10388Y15932D02*
X10388Y15788D01*
X10532Y15788D01*
G74*
D01*
G03X10388Y15932I232J88*
G01*
X16928Y16334D02*
G75*
D01*
G03X16928Y16334I328J0*
G01*
X11741Y17000D02*
G75*
D01*
G03X11741Y17000I59J0*
G01*
X11568Y17088D02*
X11712Y17088D01*
X11712Y17232D01*
G74*
D01*
G03X11568Y17088I88J232*
G01*
X11712Y16768D02*
X11712Y16912D01*
X11568Y16912D01*
G74*
D01*
G03X11712Y16768I232J88*
G01*
X11888Y17232D02*
X11888Y17088D01*
X12032Y17088D01*
G74*
D01*
G03X11888Y17232I232J88*
G01*
X12032Y16912D02*
X11888Y16912D01*
X11888Y16768D01*
G74*
D01*
G03X12032Y16912I88J232*
G01*
X15018Y17938D02*
X15162Y17938D01*
X15162Y18082D01*
G74*
D01*
G03X15018Y17938I88J232*
G01*
X15338Y18082D02*
X15338Y17938D01*
X15482Y17938D01*
G74*
D01*
G03X15338Y18082I232J88*
G01*
X15482Y17762D02*
X15338Y17762D01*
X15338Y17618D01*
G74*
D01*
G03X15482Y17762I88J232*
G01*
X15162Y17618D02*
X15162Y17762D01*
X15018Y17762D01*
G74*
D01*
G03X15162Y17618I232J88*
G01*
X15191Y17850D02*
G75*
D01*
G03X15191Y17850I59J0*
G01*
X19534Y19534D02*
X19534Y151D01*
X151Y151D01*
X151Y19534D01*
X19534Y19534D01*
X7200Y4800D02*
X4600Y7400D01*
X800Y7400D01*
X2900Y8400D02*
X3600Y9100D01*
X3600Y14800D01*
X4400Y15600D01*
X16400Y1600D02*
X16400Y6200D01*
G54D12*
X5150Y13100D02*
X5150Y17300D01*
X3750Y17300D02*
X7350Y17300D01*
X3250Y17800D02*
X3750Y17300D01*
X7350Y17300D02*
X8050Y18000D01*
X800Y17800D02*
X3250Y17800D01*
X16300Y16300D02*
X16300Y13600D01*
X18800Y11600D02*
X17300Y11600D01*
X15300Y13600D01*
X14550Y13600D01*
X12800Y15350D01*
X4600Y12550D02*
X5150Y13100D01*
X14200Y16200D02*
X14300Y16300D01*
X16300Y16300D01*
G54D13*
X10300Y8800D03*
X10400Y5400D03*
X14600Y1900D03*
X6000Y2200D03*
X10600Y1600D03*
X14200Y5400D03*
X11800Y17000D03*
X10300Y15700D03*
X13800Y9500D03*
X16300Y16300D03*
X14200Y16200D03*
X4000Y13500D03*
X7200Y4800D03*
X2900Y8400D03*
X12800Y15350D03*
X8050Y18000D03*
X4400Y15600D03*
X11300Y13750D03*
X4600Y12550D03*
X15250Y17850D03*
G54D14*
X17400Y1600D03*
G54D15*
X16400Y1600D03*
G54D16*
X16240Y1440D02*
X16560Y1440D01*
X16560Y1760D01*
X16240Y1760D01*
X16240Y1440D01*D02*
G54D17*
X16400Y6200D03*
X800Y1600D03*
X800Y7400D03*
X18800Y12600D03*
X800Y18800D03*
X15300Y13600D03*
G54D18*
X16296Y6096D02*
X16504Y6096D01*
X16504Y6304D01*
X16296Y6304D01*
X16296Y6096D01*D02*
X696Y1496D02*
X904Y1496D01*
X904Y1704D01*
X696Y1704D01*
X696Y1496D01*D02*
X696Y7296D02*
X904Y7296D01*
X904Y7504D01*
X696Y7504D01*
X696Y7296D01*D02*
X18696Y12496D02*
X18904Y12496D01*
X18904Y12704D01*
X18696Y12704D01*
X18696Y12496D01*D02*
X696Y18696D02*
X904Y18696D01*
X904Y18904D01*
X696Y18904D01*
X696Y18696D01*D02*
X15196Y13496D02*
X15404Y13496D01*
X15404Y13704D01*
X15196Y13704D01*
X15196Y13496D01*D02*
G54D19*
X17400Y6200D03*
X800Y3600D03*
X800Y2600D03*
X800Y4600D03*
X800Y8400D03*
X800Y9400D03*
X18800Y11600D03*
X18800Y10600D03*
X800Y17800D03*
X800Y16800D03*
X800Y14800D03*
X800Y15800D03*
X800Y13800D03*
X16300Y13600D03*
G54D20*
X8000Y2000D03*

M02*
