M48
INCH,TZ
VER,1
FMAT,2
DETECT,ON
ATC,ON
T1C0.0118
T2C0.0394
T3C0.0392
T4C0.0350
T5C0.0354
%
T1
X10300Y8800
X10400Y5400
X14600Y1900
X6000Y2200
X10600Y1600
X14200Y5400
X11800Y17000
X10300Y15700
X13800Y9500
X16300Y16300
X14200Y16200
X4000Y13500
X7200Y4800
X2900Y8400
X12800Y15350
X8050Y18000
X4400Y15600
X11300Y13750
X4600Y12550
X15250Y17850
T2
X17400Y1600
X16400
T3
X16400Y6200
X800Y1600
Y7400
X18800Y12600
X800Y18800
X15300Y13600
T4
X17400Y6200
X800Y3600
Y2600
Y4600
Y8400
Y9400
X18800Y11600
Y10600
X800Y17800
Y16800
Y14800
Y15800
Y13800
X8000Y2000
X16300Y13600
T5
X17256Y18066
Y16334
M30
