G04 Generated by Ultiboard 14.1 *
%FSLAX24Y24*%
%MOIN*%

%ADD10C,0.0001*%
%ADD11C,0.0100*%
%ADD12C,0.0250*%
%ADD13C,0.0150*%
%ADD14C,0.0236*%
%ADD15R,0.0689X0.0177*%
%ADD16R,0.0108X0.0417*%
%ADD17C,0.0167*%
%ADD18R,0.0236X0.0610*%
%ADD19C,0.0674*%
%ADD20R,0.0320X0.0320*%
%ADD21C,0.0350*%
%ADD22R,0.0417X0.0108*%
%ADD23R,0.0394X0.0236*%
%ADD24R,0.0472X0.0433*%
%ADD25R,0.0208X0.0208*%
%ADD26C,0.0392*%
%ADD27C,0.0633*%
%ADD28R,0.0591X0.0236*%
%ADD29R,0.0374X0.0472*%
%ADD30R,0.0984X0.0787*%
%ADD31R,0.0906X0.0197*%
%ADD32R,0.0225X0.0467*%
%ADD33C,0.0717*%


G04 ColorRGB 00FF00 for the following layer *
%LNCopper Top*%
%LPD*%
G54D10*
G54D11*
X800Y4600D02*
X1800Y4600D01*
X2900Y5700D01*
X800Y3600D02*
X1400Y3600D01*
X3000Y5200D01*
X800Y2600D02*
X1400Y2600D01*
X3500Y4700D01*
X800Y1600D02*
X1500Y1600D01*
X4100Y4200D01*
X5737Y6700D02*
X5500Y6700D01*
X2700Y9500D01*
X900Y9500D01*
X800Y9400D01*
X5100Y6200D02*
X2900Y8400D01*
X800Y8400D01*
X7863Y5700D02*
X9206Y5700D01*
X9700Y6194D01*
X10694Y6194D01*
X10800Y6300D01*
X8100Y6200D02*
X8960Y7060D01*
X9011Y7060D01*
X7863Y6200D02*
X8100Y6200D01*
X9011Y7060D02*
X9011Y8111D01*
X9100Y8200D01*
X9700Y7060D02*
X10640Y7060D01*
X9011Y6194D02*
X9700Y6883D01*
X10640Y7060D02*
X10800Y6900D01*
X9700Y7060D02*
X9700Y8200D01*
X10300Y8800D01*
X10800Y6900D02*
X11400Y6900D01*
X13650Y4063D02*
X13650Y5350D01*
X7863Y4200D02*
X12513Y4200D01*
X12650Y4063D01*
X13900Y3529D02*
X14150Y3779D01*
X14150Y4063D01*
X13150Y1937D02*
X13150Y1550D01*
X13500Y1200D01*
X16000Y1200D01*
X16400Y1600D01*
X13650Y1937D02*
X13650Y2250D01*
X13900Y2500D01*
X17000Y2500D01*
X17400Y2100D01*
X17400Y1600D01*
X14150Y1937D02*
X14563Y1937D01*
X5900Y2800D02*
X5900Y2300D01*
X6000Y2200D01*
X10600Y1600D02*
X11100Y1600D01*
X13700Y5400D02*
X14200Y5400D01*
X800Y15800D02*
X1600Y15800D01*
X2328Y15072D01*
X5830Y15072D01*
X800Y14800D02*
X5814Y14800D01*
X16271Y18952D02*
X18437Y18952D01*
X18437Y15448D01*
X16232Y17830D02*
X16232Y18913D01*
X14000Y18100D02*
X14700Y18100D01*
X14970Y17830D01*
X16232Y17830D01*
X11800Y16500D02*
X12673Y16500D01*
X12747Y16574D01*
X11800Y16500D02*
X11800Y17000D01*
X9800Y15900D02*
X10000Y15700D01*
X10300Y15700D01*
X8665Y15584D02*
X9484Y15584D01*
X9800Y15900D01*
X8665Y13025D02*
X9275Y13025D01*
X10100Y12200D01*
X13033Y12200D01*
X13106Y12127D01*
X8665Y13281D02*
X9419Y13281D01*
X10000Y12700D01*
X14133Y12700D01*
X14706Y12127D01*
X14706Y11300D02*
X14706Y10213D01*
X14594Y10100D01*
X13106Y11300D02*
X13106Y10213D01*
X12994Y10100D01*
X12994Y9500D02*
X14594Y9500D01*
X8665Y14049D02*
X9249Y14049D01*
X9500Y14300D01*
X14100Y14300D01*
X15500Y16900D02*
X16217Y16900D01*
X15200Y16600D02*
X15500Y16900D01*
X8665Y14305D02*
X9205Y14305D01*
X9500Y14600D01*
X14900Y16700D02*
X15400Y17200D01*
X16232Y17200D01*
X9500Y14600D02*
X14000Y14600D01*
X15200Y15400D02*
X15200Y16600D01*
X14900Y15500D02*
X14900Y16700D01*
X14000Y14600D02*
X14900Y15500D01*
X14100Y14300D02*
X15200Y15400D01*
X16271Y15448D02*
X18437Y15448D01*
X4600Y13500D02*
X4600Y13800D01*
X4849Y14049D01*
X5830Y14049D01*
X4600Y13500D02*
X4000Y13500D01*
X5830Y15840D02*
X5830Y16530D01*
X6500Y17200D01*
X6500Y18000D01*
X800Y18800D02*
X5700Y18800D01*
X6500Y18000D01*
X5830Y13025D02*
X6275Y13025D01*
X5830Y13281D02*
X6419Y13281D01*
X6600Y13500D02*
X5867Y13500D01*
X5830Y13790D02*
X6710Y13790D01*
X2700Y9500D02*
X2700Y12700D01*
X4560Y14560D01*
X5830Y14560D01*
X2900Y5700D02*
X6100Y5700D01*
X6400Y6000D02*
X6400Y12900D01*
X6100Y5700D02*
X6400Y6000D01*
X6275Y13025D02*
X6400Y12900D01*
X6419Y13281D02*
X6600Y13100D01*
X6600Y5600D02*
X6200Y5200D01*
X6600Y13100D02*
X6600Y5600D01*
X3000Y5200D02*
X6200Y5200D01*
X3500Y4700D02*
X6200Y4700D01*
X6800Y5300D02*
X6800Y13300D01*
X6200Y4700D02*
X6800Y5300D01*
X6800Y13300D02*
X6600Y13500D01*
X6710Y13790D02*
X7000Y13500D01*
X7000Y5100D02*
X6100Y4200D01*
X7000Y13500D02*
X7000Y5100D01*
X4100Y4200D02*
X6100Y4200D01*
X7863Y5200D02*
X7600Y5200D01*
X7200Y4800D01*
X4400Y15600D02*
X5814Y15600D01*
X7900Y15300D02*
X8636Y15300D01*
X11300Y3500D02*
X13871Y3500D01*
X13900Y3529D02*
X13871Y3500D01*
X8063Y3500D02*
X11300Y3500D01*
X8063Y3500D02*
X7863Y3700D01*
X7200Y4800D02*
X7200Y14600D01*
X7900Y15300D01*
X17800Y4700D02*
X17500Y4700D01*
X17400Y4800D01*
X17400Y6200D01*
X17400Y2100D02*
X17400Y4000D01*
X17500Y4100D01*
X17800Y4100D01*
X10033Y13800D02*
X8665Y13800D01*
X10767Y13800D02*
X11250Y13800D01*
X11350Y13700D01*
X7863Y4700D02*
X7550Y4700D01*
X7150Y4300D01*
X7150Y2850D01*
X8000Y2000D01*
X5100Y6200D02*
X5737Y6200D01*
X7863Y6700D02*
X7550Y6700D01*
X7400Y6550D01*
X7429Y5450D02*
X7400Y5479D01*
X7400Y6550D02*
X7400Y5479D01*
X8350Y5450D02*
X8400Y5400D01*
X7429Y5450D02*
X8350Y5450D01*
G54D12*
X11400Y5800D02*
X11000Y5400D01*
X11400Y7700D02*
X11400Y5800D01*
X11000Y5400D02*
X8400Y5400D01*
X10300Y8800D02*
X11400Y7700D01*
X8600Y8800D02*
X10300Y8800D01*
X7863Y8063D02*
X8600Y8800D01*
X7863Y6700D02*
X7863Y8063D01*
G54D13*
X14200Y16200D02*
X13653Y16200D01*
X14000Y16547D02*
X13653Y16200D01*
X14000Y17500D02*
X14000Y16547D01*
X15900Y7950D02*
X16650Y8700D01*
X13100Y6600D02*
X14450Y7950D01*
X13100Y5400D02*
X13100Y6600D01*
X8665Y12513D02*
X8837Y12513D01*
X13150Y4063D02*
X13150Y5350D01*
X4600Y12900D02*
X4600Y12550D01*
X7100Y18000D02*
X8900Y18000D01*
X9800Y17100D01*
X9800Y16500D01*
X9000Y16500D02*
X10300Y16500D01*
X8665Y16165D02*
X9000Y16500D01*
X10300Y16500D02*
X10900Y15900D01*
X8665Y15840D02*
X8665Y16165D01*
X10900Y15900D02*
X12673Y15900D01*
X12747Y15826D02*
X12747Y15403D01*
X9900Y15350D02*
X12800Y15350D01*
X9110Y14560D02*
X9900Y15350D01*
X8665Y14560D02*
X9110Y14560D01*
X18100Y11600D02*
X18800Y11600D01*
X17300Y10800D02*
X18100Y11600D01*
X17300Y8500D02*
X17300Y10800D01*
X16250Y7450D02*
X17300Y8500D01*
X15650Y7450D02*
X16250Y7450D01*
X14950Y6750D02*
X15650Y7450D01*
X14950Y3800D02*
X14950Y6750D01*
X14050Y2900D02*
X14950Y3800D01*
X13050Y2900D02*
X14050Y2900D01*
X12650Y2500D02*
X13050Y2900D01*
X12650Y1937D02*
X12650Y2500D01*
X12037Y1937D02*
X12650Y1937D01*
X11700Y1600D02*
X12037Y1937D01*
X11700Y950D02*
X11700Y1600D01*
X11500Y750D02*
X11700Y950D01*
X5600Y3700D02*
X5300Y3400D01*
X5830Y12769D02*
X4731Y12769D01*
X16300Y16300D02*
X16300Y16502D01*
X5300Y2150D02*
X5300Y3400D01*
X6700Y750D02*
X11500Y750D01*
X5300Y2150D02*
X6700Y750D01*
X8837Y12513D02*
X13400Y7950D01*
X15900Y7950D01*
X17300Y12600D02*
X18800Y12600D01*
X17300Y12600D02*
X16300Y13600D01*
X16650Y8700D02*
X16650Y11950D01*
X17300Y12600D01*
G54D14*
X10300Y8800D03*
X10400Y5400D03*
X14600Y1900D03*
X6000Y2200D03*
X10600Y1600D03*
X14200Y5400D03*
X11800Y17000D03*
X10300Y15700D03*
X13800Y9500D03*
X16300Y16300D03*
X14200Y16200D03*
X4000Y13500D03*
X7200Y4800D03*
X2900Y8400D03*
X12800Y15350D03*
X8050Y18000D03*
X4400Y15600D03*
X11300Y13750D03*
X4600Y12550D03*
X15250Y17850D03*
G54D15*
X5830Y12513D03*
X8665Y12513D03*
X5830Y12769D03*
X5830Y13281D03*
X5830Y13025D03*
X8665Y12769D03*
X8665Y13281D03*
X8665Y13025D03*
X5830Y13537D03*
X5830Y14305D03*
X5830Y13790D03*
X5830Y14049D03*
X8665Y13537D03*
X8665Y14305D03*
X8665Y13790D03*
X8665Y14049D03*
X5830Y15072D03*
X5830Y14816D03*
X5830Y14560D03*
X8665Y15072D03*
X8665Y14816D03*
X8665Y14560D03*
X5830Y15840D03*
X5830Y15584D03*
X5830Y15328D03*
X8665Y15840D03*
X8665Y15584D03*
X8665Y15328D03*
G54D16*
X9100Y8200D03*
X9700Y8200D03*
X7100Y18000D03*
X6500Y18000D03*
X13100Y5400D03*
X13700Y5400D03*
X5300Y2800D03*
X5900Y2800D03*
X11100Y1600D03*
X11700Y1600D03*
G54D17*
X9046Y7992D02*
X9154Y7992D01*
X9154Y8408D01*
X9046Y8408D01*
X9046Y7992D01*D02*
X9646Y7992D02*
X9754Y7992D01*
X9754Y8408D01*
X9646Y8408D01*
X9646Y7992D01*D02*
X7046Y17792D02*
X7154Y17792D01*
X7154Y18208D01*
X7046Y18208D01*
X7046Y17792D01*D02*
X6446Y17792D02*
X6554Y17792D01*
X6554Y18208D01*
X6446Y18208D01*
X6446Y17792D01*D02*
X13792Y18046D02*
X14208Y18046D01*
X14208Y18154D01*
X13792Y18154D01*
X13792Y18046D01*D02*
X13792Y17446D02*
X14208Y17446D01*
X14208Y17554D01*
X13792Y17554D01*
X13792Y17446D01*D02*
X11592Y15846D02*
X12008Y15846D01*
X12008Y15954D01*
X11592Y15954D01*
X11592Y15846D01*D02*
X11592Y16446D02*
X12008Y16446D01*
X12008Y16554D01*
X11592Y16554D01*
X11592Y16446D01*D02*
X12786Y9446D02*
X13202Y9446D01*
X13202Y9554D01*
X12786Y9554D01*
X12786Y9446D01*D02*
X12786Y10046D02*
X13202Y10046D01*
X13202Y10154D01*
X12786Y10154D01*
X12786Y10046D01*D02*
X14386Y9446D02*
X14802Y9446D01*
X14802Y9554D01*
X14386Y9554D01*
X14386Y9446D01*D02*
X14386Y10046D02*
X14802Y10046D01*
X14802Y10154D01*
X14386Y10154D01*
X14386Y10046D01*D02*
X13046Y5192D02*
X13154Y5192D01*
X13154Y5608D01*
X13046Y5608D01*
X13046Y5192D01*D02*
X13646Y5192D02*
X13754Y5192D01*
X13754Y5608D01*
X13646Y5608D01*
X13646Y5192D01*D02*
X5246Y2592D02*
X5354Y2592D01*
X5354Y3008D01*
X5246Y3008D01*
X5246Y2592D01*D02*
X5846Y2592D02*
X5954Y2592D01*
X5954Y3008D01*
X5846Y3008D01*
X5846Y2592D01*D02*
X17592Y4046D02*
X18008Y4046D01*
X18008Y4154D01*
X17592Y4154D01*
X17592Y4046D01*D02*
X17592Y4646D02*
X18008Y4646D01*
X18008Y4754D01*
X17592Y4754D01*
X17592Y4646D01*D02*
X10592Y6246D02*
X11008Y6246D01*
X11008Y6354D01*
X10592Y6354D01*
X10592Y6246D01*D02*
X10592Y6846D02*
X11008Y6846D01*
X11008Y6954D01*
X10592Y6954D01*
X10592Y6846D01*D02*
X11046Y1392D02*
X11154Y1392D01*
X11154Y1808D01*
X11046Y1808D01*
X11046Y1392D01*D02*
X11646Y1392D02*
X11754Y1392D01*
X11754Y1808D01*
X11646Y1808D01*
X11646Y1392D01*D02*
X9592Y15846D02*
X10008Y15846D01*
X10008Y15954D01*
X9592Y15954D01*
X9592Y15846D01*D02*
X9592Y16446D02*
X10008Y16446D01*
X10008Y16554D01*
X9592Y16554D01*
X9592Y16446D01*D02*
X4392Y13446D02*
X4808Y13446D01*
X4808Y13554D01*
X4392Y13554D01*
X4392Y13446D01*D02*
X4392Y12846D02*
X4808Y12846D01*
X4808Y12954D01*
X4392Y12954D01*
X4392Y12846D01*D02*
X9921Y13567D02*
X10145Y13567D01*
X10145Y14033D01*
X9921Y14033D01*
X9921Y13567D01*D02*
X10655Y13567D02*
X10879Y13567D01*
X10879Y14033D01*
X10655Y14033D01*
X10655Y13567D01*D02*
G54D18*
X12650Y1937D03*
X13150Y1937D03*
X14150Y1937D03*
X13650Y1937D03*
X12650Y4063D03*
X13150Y4063D03*
X13650Y4063D03*
X14150Y4063D03*
G54D19*
X17400Y1600D03*
G54D20*
X16400Y1600D03*
G54D21*
X16240Y1440D02*
X16560Y1440D01*
X16560Y1760D01*
X16240Y1760D01*
X16240Y1440D01*D02*
G54D22*
X14000Y18100D03*
X14000Y17500D03*
X11800Y15900D03*
X11800Y16500D03*
X12994Y9500D03*
X12994Y10100D03*
X14594Y9500D03*
X14594Y10100D03*
X17800Y4100D03*
X17800Y4700D03*
X10800Y6300D03*
X10800Y6900D03*
X9800Y15900D03*
X9800Y16500D03*
X4600Y13500D03*
X4600Y12900D03*
G54D23*
X12747Y15826D03*
X12747Y16574D03*
X13653Y16200D03*
G54D24*
X13106Y12127D03*
X13106Y11300D03*
X14706Y11300D03*
X14706Y12127D03*
G54D25*
X16400Y6200D03*
X800Y1600D03*
X800Y7400D03*
X18800Y12600D03*
X800Y18800D03*
X15300Y13600D03*
G54D26*
X16296Y6096D02*
X16504Y6096D01*
X16504Y6304D01*
X16296Y6304D01*
X16296Y6096D01*D02*
X696Y1496D02*
X904Y1496D01*
X904Y1704D01*
X696Y1704D01*
X696Y1496D01*D02*
X696Y7296D02*
X904Y7296D01*
X904Y7504D01*
X696Y7504D01*
X696Y7296D01*D02*
X18696Y12496D02*
X18904Y12496D01*
X18904Y12704D01*
X18696Y12704D01*
X18696Y12496D01*D02*
X696Y18696D02*
X904Y18696D01*
X904Y18904D01*
X696Y18904D01*
X696Y18696D01*D02*
X15196Y13496D02*
X15404Y13496D01*
X15404Y13704D01*
X15196Y13704D01*
X15196Y13496D01*D02*
G54D27*
X17400Y6200D03*
X800Y3600D03*
X800Y2600D03*
X800Y4600D03*
X800Y8400D03*
X800Y9400D03*
X18800Y11600D03*
X18800Y10600D03*
X800Y17800D03*
X800Y16800D03*
X800Y14800D03*
X800Y15800D03*
X800Y13800D03*
X16300Y13600D03*
G54D28*
X5737Y3700D03*
X7863Y3700D03*
X5737Y4700D03*
X5737Y4200D03*
X7863Y4700D03*
X7863Y4200D03*
X5737Y5200D03*
X5737Y5700D03*
X7863Y5200D03*
X7863Y5700D03*
X5737Y6200D03*
X7863Y6200D03*
X5737Y6700D03*
X7863Y6700D03*
G54D29*
X9011Y7060D03*
X9011Y6194D03*
X9700Y7060D03*
X9700Y6194D03*
G54D30*
X16271Y15448D03*
X18437Y15448D03*
X16271Y18952D03*
X18437Y18952D03*
G54D31*
X16232Y16885D03*
X16232Y17200D03*
X16232Y16570D03*
X16232Y17830D03*
X16232Y17515D03*
G54D32*
X10033Y13800D03*
X10767Y13800D03*
G54D33*
X8000Y2000D03*

M02*
