G04 Generated by Ultiboard 14.1 *
%FSLAX24Y24*%
%MOIN*%

%ADD10C,0.0001*%
%ADD11C,0.0236*%
%ADD12C,0.0674*%
%ADD13R,0.0320X0.0320*%
%ADD14C,0.0350*%
%ADD15R,0.0208X0.0208*%
%ADD16C,0.0392*%
%ADD17C,0.0633*%
%ADD18C,0.0717*%


G04 ColorRGB 9900CC for the following layer *
%LNSolder Mask Bottom*%
%LPD*%
G54D10*
G54D11*
X10300Y8800D03*
X10400Y5400D03*
X14600Y1900D03*
X6000Y2200D03*
X10600Y1600D03*
X14200Y5400D03*
X11800Y17000D03*
X10300Y15700D03*
X13800Y9500D03*
X16300Y16300D03*
X14200Y16200D03*
X4000Y13500D03*
X7200Y4800D03*
X2900Y8400D03*
X12800Y15350D03*
X8050Y18000D03*
X4400Y15600D03*
X11300Y13750D03*
X4600Y12550D03*
X15250Y17850D03*
G54D12*
X17400Y1600D03*
G54D13*
X16400Y1600D03*
G54D14*
X16240Y1440D02*
X16560Y1440D01*
X16560Y1760D01*
X16240Y1760D01*
X16240Y1440D01*D02*
G54D15*
X16400Y6200D03*
X800Y1600D03*
X800Y7400D03*
X18800Y12600D03*
X800Y18800D03*
X15300Y13600D03*
G54D16*
X16296Y6096D02*
X16504Y6096D01*
X16504Y6304D01*
X16296Y6304D01*
X16296Y6096D01*D02*
X696Y1496D02*
X904Y1496D01*
X904Y1704D01*
X696Y1704D01*
X696Y1496D01*D02*
X696Y7296D02*
X904Y7296D01*
X904Y7504D01*
X696Y7504D01*
X696Y7296D01*D02*
X18696Y12496D02*
X18904Y12496D01*
X18904Y12704D01*
X18696Y12704D01*
X18696Y12496D01*D02*
X696Y18696D02*
X904Y18696D01*
X904Y18904D01*
X696Y18904D01*
X696Y18696D01*D02*
X15196Y13496D02*
X15404Y13496D01*
X15404Y13704D01*
X15196Y13704D01*
X15196Y13496D01*D02*
G54D17*
X17400Y6200D03*
X800Y3600D03*
X800Y2600D03*
X800Y4600D03*
X800Y8400D03*
X800Y9400D03*
X18800Y11600D03*
X18800Y10600D03*
X800Y17800D03*
X800Y16800D03*
X800Y14800D03*
X800Y15800D03*
X800Y13800D03*
X16300Y13600D03*
G54D18*
X8000Y2000D03*

M02*
