G04 Generated by Ultiboard 14.1 *
%FSLAX24Y24*%
%MOIN*%

%ADD10C,0.0001*%
%ADD11C,0.0236*%
%ADD12R,0.0689X0.0177*%
%ADD13R,0.0108X0.0417*%
%ADD14C,0.0167*%
%ADD15R,0.0236X0.0610*%
%ADD16C,0.0674*%
%ADD17R,0.0320X0.0320*%
%ADD18C,0.0350*%
%ADD19R,0.0417X0.0108*%
%ADD20R,0.0394X0.0236*%
%ADD21R,0.0472X0.0433*%
%ADD22R,0.0208X0.0208*%
%ADD23C,0.0392*%
%ADD24C,0.0633*%
%ADD25R,0.0591X0.0236*%
%ADD26R,0.0374X0.0472*%
%ADD27R,0.0984X0.0787*%
%ADD28R,0.0906X0.0197*%
%ADD29R,0.0225X0.0467*%
%ADD30C,0.0717*%


G04 ColorRGB FF00CC for the following layer *
%LNSolder Mask Top*%
%LPD*%
G54D10*
G54D11*
X10300Y8800D03*
X10400Y5400D03*
X14600Y1900D03*
X6000Y2200D03*
X10600Y1600D03*
X14200Y5400D03*
X11800Y17000D03*
X10300Y15700D03*
X13800Y9500D03*
X16300Y16300D03*
X14200Y16200D03*
X4000Y13500D03*
X7200Y4800D03*
X2900Y8400D03*
X12800Y15350D03*
X8050Y18000D03*
X4400Y15600D03*
X11300Y13750D03*
X4600Y12550D03*
X15250Y17850D03*
G54D12*
X5830Y12513D03*
X8665Y12513D03*
X5830Y12769D03*
X5830Y13281D03*
X5830Y13025D03*
X8665Y12769D03*
X8665Y13281D03*
X8665Y13025D03*
X5830Y13537D03*
X5830Y14305D03*
X5830Y13790D03*
X5830Y14049D03*
X8665Y13537D03*
X8665Y14305D03*
X8665Y13790D03*
X8665Y14049D03*
X5830Y15072D03*
X5830Y14816D03*
X5830Y14560D03*
X8665Y15072D03*
X8665Y14816D03*
X8665Y14560D03*
X5830Y15840D03*
X5830Y15584D03*
X5830Y15328D03*
X8665Y15840D03*
X8665Y15584D03*
X8665Y15328D03*
G54D13*
X9100Y8200D03*
X9700Y8200D03*
X7100Y18000D03*
X6500Y18000D03*
X13100Y5400D03*
X13700Y5400D03*
X5300Y2800D03*
X5900Y2800D03*
X11100Y1600D03*
X11700Y1600D03*
G54D14*
X9046Y7992D02*
X9154Y7992D01*
X9154Y8408D01*
X9046Y8408D01*
X9046Y7992D01*D02*
X9646Y7992D02*
X9754Y7992D01*
X9754Y8408D01*
X9646Y8408D01*
X9646Y7992D01*D02*
X7046Y17792D02*
X7154Y17792D01*
X7154Y18208D01*
X7046Y18208D01*
X7046Y17792D01*D02*
X6446Y17792D02*
X6554Y17792D01*
X6554Y18208D01*
X6446Y18208D01*
X6446Y17792D01*D02*
X13792Y18046D02*
X14208Y18046D01*
X14208Y18154D01*
X13792Y18154D01*
X13792Y18046D01*D02*
X13792Y17446D02*
X14208Y17446D01*
X14208Y17554D01*
X13792Y17554D01*
X13792Y17446D01*D02*
X11592Y15846D02*
X12008Y15846D01*
X12008Y15954D01*
X11592Y15954D01*
X11592Y15846D01*D02*
X11592Y16446D02*
X12008Y16446D01*
X12008Y16554D01*
X11592Y16554D01*
X11592Y16446D01*D02*
X12786Y9446D02*
X13202Y9446D01*
X13202Y9554D01*
X12786Y9554D01*
X12786Y9446D01*D02*
X12786Y10046D02*
X13202Y10046D01*
X13202Y10154D01*
X12786Y10154D01*
X12786Y10046D01*D02*
X14386Y9446D02*
X14802Y9446D01*
X14802Y9554D01*
X14386Y9554D01*
X14386Y9446D01*D02*
X14386Y10046D02*
X14802Y10046D01*
X14802Y10154D01*
X14386Y10154D01*
X14386Y10046D01*D02*
X13046Y5192D02*
X13154Y5192D01*
X13154Y5608D01*
X13046Y5608D01*
X13046Y5192D01*D02*
X13646Y5192D02*
X13754Y5192D01*
X13754Y5608D01*
X13646Y5608D01*
X13646Y5192D01*D02*
X5246Y2592D02*
X5354Y2592D01*
X5354Y3008D01*
X5246Y3008D01*
X5246Y2592D01*D02*
X5846Y2592D02*
X5954Y2592D01*
X5954Y3008D01*
X5846Y3008D01*
X5846Y2592D01*D02*
X17592Y4046D02*
X18008Y4046D01*
X18008Y4154D01*
X17592Y4154D01*
X17592Y4046D01*D02*
X17592Y4646D02*
X18008Y4646D01*
X18008Y4754D01*
X17592Y4754D01*
X17592Y4646D01*D02*
X10592Y6246D02*
X11008Y6246D01*
X11008Y6354D01*
X10592Y6354D01*
X10592Y6246D01*D02*
X10592Y6846D02*
X11008Y6846D01*
X11008Y6954D01*
X10592Y6954D01*
X10592Y6846D01*D02*
X11046Y1392D02*
X11154Y1392D01*
X11154Y1808D01*
X11046Y1808D01*
X11046Y1392D01*D02*
X11646Y1392D02*
X11754Y1392D01*
X11754Y1808D01*
X11646Y1808D01*
X11646Y1392D01*D02*
X9592Y15846D02*
X10008Y15846D01*
X10008Y15954D01*
X9592Y15954D01*
X9592Y15846D01*D02*
X9592Y16446D02*
X10008Y16446D01*
X10008Y16554D01*
X9592Y16554D01*
X9592Y16446D01*D02*
X4392Y13446D02*
X4808Y13446D01*
X4808Y13554D01*
X4392Y13554D01*
X4392Y13446D01*D02*
X4392Y12846D02*
X4808Y12846D01*
X4808Y12954D01*
X4392Y12954D01*
X4392Y12846D01*D02*
X9921Y13567D02*
X10145Y13567D01*
X10145Y14033D01*
X9921Y14033D01*
X9921Y13567D01*D02*
X10655Y13567D02*
X10879Y13567D01*
X10879Y14033D01*
X10655Y14033D01*
X10655Y13567D01*D02*
G54D15*
X12650Y1937D03*
X13150Y1937D03*
X14150Y1937D03*
X13650Y1937D03*
X12650Y4063D03*
X13150Y4063D03*
X13650Y4063D03*
X14150Y4063D03*
G54D16*
X17400Y1600D03*
G54D17*
X16400Y1600D03*
G54D18*
X16240Y1440D02*
X16560Y1440D01*
X16560Y1760D01*
X16240Y1760D01*
X16240Y1440D01*D02*
G54D19*
X14000Y18100D03*
X14000Y17500D03*
X11800Y15900D03*
X11800Y16500D03*
X12994Y9500D03*
X12994Y10100D03*
X14594Y9500D03*
X14594Y10100D03*
X17800Y4100D03*
X17800Y4700D03*
X10800Y6300D03*
X10800Y6900D03*
X9800Y15900D03*
X9800Y16500D03*
X4600Y13500D03*
X4600Y12900D03*
G54D20*
X12747Y15826D03*
X12747Y16574D03*
X13653Y16200D03*
G54D21*
X13106Y12127D03*
X13106Y11300D03*
X14706Y11300D03*
X14706Y12127D03*
G54D22*
X16400Y6200D03*
X800Y1600D03*
X800Y7400D03*
X18800Y12600D03*
X800Y18800D03*
X15300Y13600D03*
G54D23*
X16296Y6096D02*
X16504Y6096D01*
X16504Y6304D01*
X16296Y6304D01*
X16296Y6096D01*D02*
X696Y1496D02*
X904Y1496D01*
X904Y1704D01*
X696Y1704D01*
X696Y1496D01*D02*
X696Y7296D02*
X904Y7296D01*
X904Y7504D01*
X696Y7504D01*
X696Y7296D01*D02*
X18696Y12496D02*
X18904Y12496D01*
X18904Y12704D01*
X18696Y12704D01*
X18696Y12496D01*D02*
X696Y18696D02*
X904Y18696D01*
X904Y18904D01*
X696Y18904D01*
X696Y18696D01*D02*
X15196Y13496D02*
X15404Y13496D01*
X15404Y13704D01*
X15196Y13704D01*
X15196Y13496D01*D02*
G54D24*
X17400Y6200D03*
X800Y3600D03*
X800Y2600D03*
X800Y4600D03*
X800Y8400D03*
X800Y9400D03*
X18800Y11600D03*
X18800Y10600D03*
X800Y17800D03*
X800Y16800D03*
X800Y14800D03*
X800Y15800D03*
X800Y13800D03*
X16300Y13600D03*
G54D25*
X5737Y3700D03*
X7863Y3700D03*
X5737Y4700D03*
X5737Y4200D03*
X7863Y4700D03*
X7863Y4200D03*
X5737Y5200D03*
X5737Y5700D03*
X7863Y5200D03*
X7863Y5700D03*
X5737Y6200D03*
X7863Y6200D03*
X5737Y6700D03*
X7863Y6700D03*
G54D26*
X9011Y7060D03*
X9011Y6194D03*
X9700Y7060D03*
X9700Y6194D03*
G54D27*
X16271Y15448D03*
X18437Y15448D03*
X16271Y18952D03*
X18437Y18952D03*
G54D28*
X16232Y16885D03*
X16232Y17200D03*
X16232Y16570D03*
X16232Y17830D03*
X16232Y17515D03*
G54D29*
X10033Y13800D03*
X10767Y13800D03*
G54D30*
X8000Y2000D03*

M02*
